<svg width="175" height="183" viewBox="0 0 175 183" fill="none" xmlns="http://www.w3.org/2000/svg">
<path d="M4.93774 129.375C13.2073 118.743 36.4409 113.23 36.4409 113.23C36.4409 113.23 56.3092 132.034 87.8304 131.541L88.8149 130.557L90.0974 131.473C105.047 130.805 122.486 125.748 141.583 112.442C155.232 116.992 164.145 121.218 172.692 129.375C142.128 150.415 117.925 147.941 99.841 138.432L90.0974 131.473C89.3352 131.507 88.5795 131.529 87.8304 131.541L83.6956 135.676L80.5453 137.645L77.395 139.614C56.9179 149.852 27.6984 147.873 4.93774 129.375Z" fill="#22C37A" fill-opacity="0.4"/>
<path d="M116.184 73.2686C119.499 32.8292 93.0219 8.85223 87.6279 1C86.3058 2.92639 55.9896 28.7467 59.0373 72.9241C32.1582 52.8118 3.04669 53.8113 1.7876 53.5654C2.19819 55.1523 -0.3448 83.4851 28.6901 108.714C52.4359 129.332 85.7223 138.974 120.214 125.386C130.238 121.425 139.504 115.879 147.599 108.886C177.114 83.2938 173.781 55.8987 174.364 53.5995C172.359 53.9874 143.721 52.3606 116.184 73.2686Z" fill="#21C37A" fill-opacity="0.55"/>
<path d="M43.9039 165.424C43.8393 154.901 44.3169 151.534 50.6175 144.839C65.2777 145.394 80.9393 140.4 88.8028 130.163C99.6086 138.694 109.912 144.879 125.201 144.381C130.951 149.565 134.446 153.812 133.763 165.424C113.317 166.709 103.975 163.647 88.8028 143.158C78.1312 161.59 68.2425 164.785 43.9039 165.424Z" fill="#22C37A" fill-opacity="0.25"/>
<path fill-rule="evenodd" clip-rule="evenodd" d="M13.8345 129.941C23.2991 136.489 35.0594 140.047 47.4728 140.047C50.0074 140.047 52.5179 139.899 54.9867 139.605C55.0835 139.547 55.1809 139.489 55.2791 139.432L55.3537 139.56C58.2045 139.203 60.998 138.653 63.707 137.914L63.6582 137.729C63.7975 137.692 63.9845 137.648 64.2139 137.593C65.8509 137.202 69.6498 136.294 73.7148 134.037C78.3043 131.488 82.8808 127.396 84.7276 120.718L91.69 122.644C91.3944 123.712 91.0475 124.73 90.6562 125.7L91.9953 125.512C92.5447 129.431 92.2653 133.133 91.4999 136.521C92.2627 138.884 93.3092 141.071 94.459 143.03C95.5457 144.88 96.6978 146.479 97.7289 147.768L97.769 147.785C97.8823 147.938 97.9972 148.09 98.1137 148.242C99.5198 149.947 100.639 151.021 100.948 151.305L100.866 151.395C101.57 152.108 102.316 152.8 103.102 153.466C109.781 159.181 118.432 162.652 127.746 163.442C127.151 157.908 124.929 150.236 117.104 145.672L120.744 139.432C129.129 144.323 132.694 151.849 134.18 158.185C134.925 161.089 135.308 164.068 135.308 167.094V170.545L131.822 170.58H131.753C119.24 170.58 107.459 166.362 98.5708 158.764C97.7285 158.048 96.9219 157.311 96.1515 156.552L96.0747 156.636C95.4012 156.021 93.1347 153.821 90.677 150.427V183H85.0586V150.604C82.4377 154.345 79.9388 156.773 79.2256 157.425L79.0953 157.282C78.5623 157.786 78.0133 158.28 77.4486 158.764C68.5607 166.362 56.7794 170.58 44.2665 170.58H44.1967L40.7111 170.545V167.094C40.7111 163.874 41.1447 160.706 41.975 157.639C42.8356 154.212 44.3148 150.475 46.8329 147.015C31.0386 146.875 16.1963 141.555 4.98468 131.926L1.88257 129.277L4.98468 126.628C9.15372 123.047 13.811 120.123 18.7635 117.829C24.1193 115.085 31.0216 112.923 41.2126 111.414L42.2712 118.559C31.9141 120.094 25.6653 122.26 21.1326 124.748C18.307 126.3 16.0792 128.005 13.8345 129.941ZM57.9989 146.239C50.9183 150.851 48.8482 158.129 48.2767 163.438C57.6098 162.643 66.2474 159.174 72.9172 153.466C73.4236 153.032 73.9153 152.589 74.3913 152.136L74.3518 152.093C74.9091 151.584 78.0857 148.511 80.8413 143.818C82.1023 141.671 83.239 139.247 84.0135 136.62C83.9304 136.293 83.8517 135.964 83.7777 135.631C81.6657 137.597 79.3973 139.144 77.2222 140.352C72.1873 143.148 67.3713 144.274 65.8802 144.623L65.8795 144.623C65.7097 144.663 65.583 144.692 65.5042 144.713L65.4939 144.674C63.046 145.334 60.5438 145.856 57.9989 146.239Z" fill="url(#paint0_linear)"/>
<path fill-rule="evenodd" clip-rule="evenodd" d="M161.673 129.836C152.183 136.451 140.363 140.048 127.883 140.048C122.388 140.048 117.026 139.363 111.937 138.01L111.972 137.878C111.855 137.848 111.699 137.81 111.507 137.763L111.507 137.763C109.912 137.373 105.843 136.379 101.519 133.985C96.6943 131.314 91.9567 127.115 90.1196 120.472L83.1572 122.397C85.6945 131.572 92.2101 137.089 98.0207 140.305C103.269 143.211 108.272 144.415 109.775 144.776L109.775 144.776C109.931 144.814 110.049 144.842 110.126 144.862L110.157 144.742C115.83 146.244 121.788 147.018 127.883 147.018C143.916 147.018 159.008 141.685 170.371 131.926L173.473 129.277L170.371 126.629C166.939 123.713 163.201 121.215 159.243 119.141C158.831 118.896 158.408 118.655 157.974 118.416C152.465 115.392 145.325 113.03 134.418 111.414L133.359 118.559C143.716 120.094 149.965 122.26 154.498 124.748C157.272 126.272 159.47 127.943 161.673 129.836Z" fill="url(#paint1_linear)"/>
<path d="M115.753 73.1258C119.108 32.2068 92.3165 7.94537 86.8585 0C85.5208 1.94924 54.8449 28.0758 57.9288 72.7773C30.7308 52.4263 1.27402 53.4377 0 53.1889C0.415458 54.7947 -2.15769 83.4635 27.2216 108.992C51.2491 129.854 84.9303 139.61 119.831 125.861C129.974 121.853 139.35 116.241 147.541 109.166C177.406 83.27 174.033 55.5499 174.623 53.2234C172.594 53.616 143.617 51.9698 115.753 73.1258ZM78.8767 124.955C61.3798 122.481 44.8932 115.091 31.7877 103.729C17.9156 91.669 9.37583 76.5069 7.49389 60.6129C44.9648 64.1094 78.9396 90.9509 83.199 125.443C81.7347 125.304 80.3061 125.129 78.8767 124.955ZM87.2419 111.885C83.1986 99.6154 75.6003 88.3922 65.5969 79.1558C65.0043 75.0776 64.6907 70.9299 64.6907 66.7124C64.6907 45.4858 72.5331 25.4794 86.8585 9.96882C104.649 29.2305 111.879 54.8303 108.016 79.6436C98.3607 88.8455 91.1109 99.8596 87.2419 111.885ZM91.3546 125.443C95.3437 89.9075 130.726 63.7951 167.164 60.6126C163.118 96.259 128.122 121.996 91.3546 125.443Z" fill="url(#paint2_linear)"/>
<defs>
<linearGradient id="paint0_linear" x1="12" y1="127.5" x2="136.805" y2="155.907" gradientUnits="userSpaceOnUse">
<stop stop-color="#21C279"/>
<stop offset="1" stop-color="#2FE692"/>
</linearGradient>
<linearGradient id="paint1_linear" x1="35.0001" y1="86" x2="162.923" y2="149.957" gradientUnits="userSpaceOnUse">
<stop offset="0.0783095" stop-color="#21C279"/>
<stop offset="1" stop-color="#2FE692"/>
</linearGradient>
<linearGradient id="paint2_linear" x1="41.5" y1="57" x2="157.5" y2="161.5" gradientUnits="userSpaceOnUse">
<stop stop-color="#21C279"/>
<stop offset="1" stop-color="#2FE692"/>
</linearGradient>
</defs>
</svg>
