<svg width="54" height="65" viewBox="0 0 54 65" fill="none" xmlns="http://www.w3.org/2000/svg">
<path d="M7.18421 0.5H46.4579C50.1502 0.5 53.1421 3.49193 53.1421 7.18421V57.8158C53.1421 61.5081 50.1502 64.5 46.4579 64.5H7.18421C3.49193 64.5 0.5 61.5081 0.5 57.8158V7.18421C0.5 3.49193 3.49193 0.5 7.18421 0.5ZM46.4579 60.7105C48.034 60.7105 49.3526 59.3919 49.3526 57.8158V7.18421C49.3526 5.60807 48.034 4.28947 46.4579 4.28947H7.18421C5.60807 4.28947 4.28947 5.60807 4.28947 7.18421V57.8158C4.28947 59.3919 5.60807 60.7105 7.18421 60.7105H46.4579Z" fill="#5ECE84" stroke="#DBF1E2"/>
<path d="M15.1211 48.8054H38.5211C39.5449 48.8054 40.4158 49.6763 40.4158 50.7002C40.4158 51.724 39.5449 52.5949 38.5211 52.5949H15.1211C14.0972 52.5949 13.2263 51.724 13.2263 50.7002C13.2263 49.6763 14.0972 48.8054 15.1211 48.8054Z" fill="#5ECE84" stroke="#DBF1E2"/>
<path d="M15.1211 37.9949H38.5211C39.5449 37.9949 40.4158 38.8658 40.4158 39.8896C40.4158 40.9135 39.5449 41.7843 38.5211 41.7843H15.1211C14.0972 41.7843 13.2263 40.9135 13.2263 39.8896C13.2263 38.8658 14.0972 37.9949 15.1211 37.9949Z" fill="#5ECE84" stroke="#DBF1E2"/>
<path d="M33.6868 20.9797L33.6869 20.9797L33.6917 20.971C34.019 20.3709 34.6079 20 35.3053 20H40.4369C41.4421 20 42.2632 20.8518 42.2632 21.8947C42.2632 22.9186 41.3924 23.7895 40.3685 23.7895H36.6053H36.3121L36.1689 24.0455L32.611 30.4086L32.611 30.4086L32.6085 30.4132C32.2812 31.0134 31.6922 31.3842 30.9948 31.3842C30.3577 31.3842 29.7045 31.006 29.3811 30.4132L29.3812 30.4132L29.3779 30.4074L22.9463 18.9811L22.5139 18.2128L22.0765 18.9783L19.887 22.8098L19.8869 22.8098L19.8822 22.8185C19.5548 23.4186 18.9659 23.7895 18.2685 23.7895H13.1369C12.1131 23.7895 11.2422 22.9186 11.2422 21.8947C11.2422 20.8709 12.1131 20 13.1369 20H16.9001H17.1906L17.3345 19.7476L20.9608 13.3844L20.9609 13.3845L20.9653 13.3763C21.2927 12.7761 21.8816 12.4053 22.579 12.4053C23.2162 12.4053 23.8694 12.7835 24.1927 13.3763L24.1927 13.3763L24.1959 13.3821L30.6275 24.8084L31.06 25.5767L31.4974 24.8112L33.6868 20.9797Z" fill="#5ECE84" stroke="#DBF1E2"/>
</svg>
