<svg width="14" height="14" viewBox="0 0 14 14" fill="none" xmlns="http://www.w3.org/2000/svg">
<path d="M0.1875 7.1875C0.125 7.125 0.09375 7.03125 0.09375 6.90625C0.09375 6.8125 0.125 6.71875 0.1875 6.65625L6.75 0.125C6.8125 0.0625 6.875 0 7 0C7.09375 0 7.1875 0.0625 7.25 0.125L13.8125 6.65625C13.875 6.71875 13.9062 6.8125 13.9062 6.90625C13.9062 7.03125 13.875 7.125 13.8125 7.1875L13.1875 7.8125C13.125 7.875 13.0312 7.90625 12.9375 7.90625C12.8125 7.90625 12.7188 7.875 12.6562 7.8125L7.8125 2.96875V13.625C7.8125 13.75 7.75 13.8438 7.6875 13.9062C7.625 13.9688 7.53125 14 7.4375 14H6.5625C6.4375 14 6.34375 13.9688 6.28125 13.9062C6.21875 13.8438 6.1875 13.75 6.1875 13.625V2.96875L1.34375 7.8125C1.25 7.875 1.15625 7.90625 1.0625 7.90625C0.9375 7.90625 0.875 7.875 0.8125 7.8125L0.1875 7.1875Z" fill="white"/>
</svg>
