<svg width="18" height="21" viewBox="0 0 18 21" fill="none" xmlns="http://www.w3.org/2000/svg">
<path d="M15.8852 3C16.393 3 16.8227 3.19531 17.2133 3.54688C17.5649 3.9375 17.7602 4.36719 17.7602 4.875V18.625C17.7602 19.1719 17.5649 19.6016 17.2133 19.9531C16.8227 20.3438 16.393 20.5 15.8852 20.5H2.1352C1.58833 20.5 1.15864 20.3438 0.807078 19.9531C0.416453 19.6016 0.260203 19.1719 0.260203 18.625V4.875C0.260203 4.36719 0.416453 3.9375 0.807078 3.54688C1.15864 3.19531 1.58833 3 2.1352 3H4.0102V0.96875C4.0102 0.851562 4.04927 0.734375 4.12739 0.65625C4.20552 0.578125 4.3227 0.5 4.47895 0.5H4.79145C4.90864 0.5 5.02583 0.578125 5.10395 0.65625C5.18208 0.734375 5.2602 0.851562 5.2602 0.96875V3H12.7602V0.96875C12.7602 0.851562 12.7993 0.734375 12.8774 0.65625C12.9555 0.578125 13.0727 0.5 13.229 0.5H13.5415C13.6586 0.5 13.7758 0.578125 13.854 0.65625C13.9321 0.734375 14.0102 0.851562 14.0102 0.96875V3H15.8852ZM2.1352 4.25C1.93989 4.25 1.78364 4.32812 1.66645 4.44531C1.54927 4.5625 1.5102 4.71875 1.5102 4.875V6.75H16.5102V4.875C16.5102 4.71875 16.4321 4.5625 16.3149 4.44531C16.1977 4.32812 16.0415 4.25 15.8852 4.25H2.1352ZM15.8852 19.25C16.0415 19.25 16.1977 19.2109 16.3149 19.0938C16.4321 18.9766 16.5102 18.8203 16.5102 18.625V8H1.5102V18.625C1.5102 18.8203 1.54927 18.9766 1.66645 19.0938C1.78364 19.2109 1.93989 19.25 2.1352 19.25H15.8852Z" fill="#FE9458"/>
</svg>
