<svg width="22" height="20" viewBox="0 0 22 20" fill="none" xmlns="http://www.w3.org/2000/svg">
<path d="M10.7143 8.35714C8.93973 8.35714 7.5 9.79687 7.5 11.5714C7.5 13.346 8.93973 14.7857 10.7143 14.7857C12.4888 14.7857 13.9286 13.346 13.9286 11.5714C13.9286 9.79687 12.4888 8.35714 10.7143 8.35714ZM18.5714 3.71429H16.0714L15.5022 2.19643C15.2232 1.45982 14.3527 0.857141 13.5714 0.857141H7.85714C7.07589 0.857141 6.20536 1.45982 5.92634 2.19643L5.35714 3.71429H2.85714C1.28348 3.71429 0 4.99777 0 6.57143V16.5714C0 18.1451 1.28348 19.4286 2.85714 19.4286H18.5714C20.1451 19.4286 21.4286 18.1451 21.4286 16.5714V6.57143C21.4286 4.99777 20.1451 3.71429 18.5714 3.71429ZM10.7143 16.5714C7.95759 16.5714 5.71429 14.3281 5.71429 11.5714C5.71429 8.81473 7.95759 6.57143 10.7143 6.57143C13.471 6.57143 15.7143 8.81473 15.7143 11.5714C15.7143 14.3281 13.471 16.5714 10.7143 16.5714Z" fill="#5ECE84"/>
</svg>
