<svg width="21" height="21" viewBox="0 0 21 21" fill="none" xmlns="http://www.w3.org/2000/svg">
<path d="M17.6224 0.5C18.2865 0.5 18.8724 0.773438 19.3803 1.24219C19.849 1.75 20.1224 2.33594 20.1224 3V14.25C20.1224 14.9531 19.849 15.5391 19.3803 16.0078C18.8724 16.5156 18.2865 16.75 17.6224 16.75H11.9974L7.11464 20.4219C7.03651 20.5 6.91932 20.5 6.80214 20.5C6.68495 20.5 6.56776 20.4609 6.48964 20.3828C6.41151 20.3047 6.37245 20.1875 6.37245 20.0312V16.75H2.62245C1.91932 16.75 1.33339 16.5156 0.864636 16.0078C0.356824 15.5391 0.122449 14.9531 0.122449 14.25V3C0.122449 2.33594 0.356824 1.75 0.864636 1.24219C1.33339 0.773438 1.91932 0.5 2.62245 0.5H17.6224ZM18.8724 14.25V3C18.8724 2.6875 18.7162 2.375 18.4818 2.14062C18.2474 1.90625 17.9349 1.75 17.6224 1.75H2.62245C2.27089 1.75 1.95839 1.90625 1.72401 2.14062C1.48964 2.375 1.37245 2.6875 1.37245 3V14.25C1.37245 14.6016 1.48964 14.9141 1.72401 15.1484C1.95839 15.3828 2.27089 15.5 2.62245 15.5H7.62245V18.4688L11.5678 15.5H17.6224C17.9349 15.5 18.2474 15.3828 18.4818 15.1484C18.7162 14.9141 18.8724 14.6016 18.8724 14.25ZM5.12245 7.6875C5.35682 7.6875 5.5912 7.80469 5.78651 7.96094C5.94276 8.15625 6.05995 8.39062 6.05995 8.625C6.05995 8.89844 5.94276 9.13281 5.78651 9.28906C5.5912 9.48438 5.35682 9.5625 5.12245 9.5625C4.84901 9.5625 4.61464 9.48438 4.45839 9.28906C4.26307 9.13281 4.18495 8.89844 4.18495 8.625C4.18495 8.39062 4.26307 8.15625 4.45839 7.96094C4.61464 7.80469 4.84901 7.6875 5.12245 7.6875ZM10.1224 7.6875C10.3568 7.6875 10.5912 7.80469 10.7865 7.96094C10.9428 8.15625 11.0599 8.39062 11.0599 8.625C11.0599 8.89844 10.9428 9.13281 10.7865 9.28906C10.5912 9.48438 10.3568 9.5625 10.1224 9.5625C9.84901 9.5625 9.61464 9.48438 9.45839 9.28906C9.26307 9.13281 9.18495 8.89844 9.18495 8.625C9.18495 8.39062 9.26307 8.15625 9.45839 7.96094C9.61464 7.80469 9.84901 7.6875 10.1224 7.6875ZM15.1224 7.6875C15.3568 7.6875 15.5912 7.80469 15.7865 7.96094C15.9428 8.15625 16.0599 8.39062 16.0599 8.625C16.0599 8.89844 15.9428 9.13281 15.7865 9.28906C15.5912 9.48438 15.3568 9.5625 15.1224 9.5625C14.849 9.5625 14.6146 9.48438 14.4584 9.28906C14.2631 9.13281 14.1849 8.89844 14.1849 8.625C14.1849 8.39062 14.2631 8.15625 14.4584 7.96094C14.6146 7.80469 14.849 7.6875 15.1224 7.6875Z" fill="#FE9458"/>
</svg>
