<svg width="59" height="57" viewBox="0 0 59 57" fill="none" xmlns="http://www.w3.org/2000/svg">
<path d="M56.9484 34.6204L45.007 23.9032H13.9927L2.05136 34.6204L0.406738 32.7989L13.0487 21.4516H45.951L58.593 32.7989L56.9484 34.6204Z" fill="#5ECE84"/>
<path d="M55.3125 53.9355H3.6875C1.65384 53.9355 0 52.2862 0 50.2581V32.4839H19.6667V33.7097C19.6667 36.7515 22.1477 39.2258 25.1979 39.2258H33.8021C36.8523 39.2258 39.3333 36.7515 39.3333 33.7097V32.4839H59V50.2581C59 52.2862 57.3462 53.9355 55.3125 53.9355ZM2.45833 34.9355V50.2581C2.45833 50.9341 3.00961 51.4839 3.6875 51.4839H55.3125C55.9904 51.4839 56.5417 50.9341 56.5417 50.2581V34.9355H41.6976C41.1046 38.7496 37.7895 41.6774 33.8021 41.6774H25.1979C21.2105 41.6774 17.8954 38.7496 17.3024 34.9355H2.45833Z" fill="#5ECE84"/>
<path d="M21.933 11.601L17.6309 4.85901L15.5568 6.17528L19.8589 12.9173L21.933 11.601Z" fill="#5ECE84"/>
<path d="M44.058 6.17308L41.9839 4.85706L37.6825 11.5991L39.7566 12.9151L44.058 6.17308Z" fill="#5ECE84"/>
<path d="M30.7293 3.67743H28.271V11.6452H30.7293V3.67743Z" fill="#5ECE84"/>
<path d="M1.5 33.5L13.5 23L45.5 22.5L57.5 33.5L58 52H1L1.5 33.5Z" fill="#5ECE84" fill-opacity="0.2"/>
</svg>
