<svg width="11" height="21" viewBox="0 0 11 21" fill="none" xmlns="http://www.w3.org/2000/svg">
<path d="M7.43622 15.5C7.43622 15.1094 7.31904 14.7578 7.08466 14.4453C6.85029 14.1328 6.53779 13.8984 6.18622 13.7422V6.125C6.18622 5.96875 6.1081 5.8125 5.99091 5.69531C5.87372 5.57812 5.71747 5.5 5.56122 5.5C5.36591 5.5 5.20966 5.57812 5.09247 5.69531C4.97529 5.8125 4.93622 5.96875 4.93622 6.125V13.7422C4.5456 13.8984 4.27216 14.1328 4.03779 14.4453C3.80341 14.7578 3.68622 15.1094 3.68622 15.5C3.68622 16.0469 3.84247 16.4766 4.2331 16.8281C4.58466 17.2188 5.01435 17.375 5.56122 17.375C6.06904 17.375 6.49872 17.2188 6.88935 16.8281C7.24091 16.4766 7.43622 16.0469 7.43622 15.5ZM9.31122 12.1797V4.25C9.31122 3.23438 8.9206 2.33594 8.21747 1.59375C7.47529 0.890625 6.57685 0.5 5.56122 0.5C4.50654 0.5 3.6081 0.890625 2.90497 1.59375C2.16279 2.33594 1.81122 3.23438 1.81122 4.25V12.1797C0.951849 13.1172 0.561224 14.2109 0.561224 15.4609C0.561224 16.3984 0.756537 17.2188 1.22529 18C1.65497 18.7812 2.24091 19.3672 3.02216 19.8359C3.80341 20.3047 4.62372 20.5 5.52216 20.5H5.56122C6.45966 20.5 7.27997 20.3047 8.06122 19.8359C8.84247 19.4062 9.42841 18.8203 9.89716 18.0391C10.3268 17.2578 10.5612 16.4375 10.5612 15.5C10.5612 14.25 10.1315 13.1562 9.31122 12.1797ZM9.31122 15.5C9.31122 16.5547 8.9206 17.4531 8.21747 18.1562C7.47529 18.8984 6.57685 19.25 5.56122 19.25H5.52216C4.50654 19.25 3.6081 18.8984 2.90497 18.1562C2.16279 17.4141 1.81122 16.5156 1.81122 15.4609C1.81122 14.875 1.92841 14.2891 2.24091 13.7422C2.39716 13.4688 2.63154 13.1562 2.9831 12.7656L3.06122 12.6484V4.25C3.06122 3.58594 3.2956 3 3.80341 2.49219C4.27216 2.02344 4.8581 1.75 5.56122 1.75C6.22529 1.75 6.81122 2.02344 7.31904 2.49219C7.78779 3 8.06122 3.58594 8.06122 4.25V12.6484L8.13935 12.7656C8.45185 13.1562 8.72529 13.4688 8.88154 13.7422C9.15497 14.2891 9.31122 14.875 9.31122 15.5Z" fill="#FE9458"/>
</svg>
