<svg width="63" height="65" viewBox="0 0 63 65" fill="none" xmlns="http://www.w3.org/2000/svg">
<path d="M2 6H17C17 6 18.5 9.5 27.5 9.5C36.5 9.5 38.5 6 38.5 6H54L53.5 28.5C53.5 28.5 37 25.5 36.5 40C36 54.5 53.5 52 53.5 52L54 62H2V6Z" fill="#5ECE84" fill-opacity="0.2"/>
<path d="M36.6497 33.0415C34.4598 37.0027 34.3792 41.7727 36.3641 45.8273C37.957 49.0809 40.9409 51.5336 44.3558 52.6663C47.6196 53.7487 51.1888 53.4226 54.2977 52.025C53.5311 51.5851 52.7645 51.1451 51.9978 50.7052C51.9978 52.4358 51.9978 54.1664 51.9978 55.8971C51.9978 56.8043 51.9978 57.7114 51.9978 58.6186C51.9978 58.8882 51.9979 59.1574 51.9879 59.4269C51.9811 59.6106 51.967 59.7939 51.9496 59.9768C51.9392 60.0842 51.8916 60.407 51.9619 59.912C51.9503 59.9933 51.9358 60.0743 51.9211 60.1552C51.8935 60.3081 51.8566 60.4591 51.8158 60.6089C51.7773 60.7501 51.5503 61.3122 51.7781 60.7827C51.7252 60.9056 51.6617 61.0237 51.5943 61.139C51.5616 61.1949 51.5253 61.2486 51.4891 61.3021C51.3398 61.5224 51.7414 60.9905 51.5736 61.195C51.4936 61.2924 51.4036 61.3812 51.3109 61.4663C51.2258 61.5444 51.0159 61.6968 51.4239 61.3874C51.3554 61.4393 51.2828 61.4857 51.21 61.5312C51.0969 61.602 50.9769 61.6613 50.8559 61.7172C51.3661 61.4817 50.8918 61.6937 50.7557 61.7364C50.6096 61.7821 50.4604 61.8168 50.3108 61.8487C50.2316 61.8655 50.1518 61.8792 50.072 61.8927C49.8065 61.938 50.4851 61.8473 50.0554 61.894C49.6285 61.9404 49.1994 61.9431 48.7706 61.9431C47.9048 61.9431 47.0388 61.9431 46.173 61.9431C42.4351 61.9431 38.6973 61.9431 34.9595 61.9431C30.1939 61.9431 25.4283 61.9431 20.6628 61.9431C16.8459 61.9431 13.029 61.9431 9.21204 61.9431C8.27692 61.9431 7.34187 61.9431 6.40683 61.9431C6.19022 61.9431 5.97369 61.9439 5.75709 61.9396C5.56858 61.9357 5.38036 61.9247 5.19243 61.9104C5.10393 61.9037 5.01564 61.8941 4.92736 61.8846C4.60471 61.8496 5.31085 61.942 4.99781 61.8928C4.67138 61.8414 4.35055 61.7583 4.041 61.643C3.77665 61.5446 4.40361 61.805 4.1517 61.6887C4.09093 61.6606 4.0319 61.6289 3.97288 61.5972C3.85861 61.5356 3.75052 61.4634 3.64542 61.3874C4.09522 61.7126 3.72534 61.4395 3.62213 61.3355C3.57773 61.2907 3.53654 61.2429 3.49542 61.1951C3.33413 61.0076 3.74878 61.5514 3.54375 61.2488C3.46987 61.1398 3.4072 61.0235 3.34803 60.906C3.29665 60.8041 3.19948 60.551 3.39105 61.0201C3.36419 60.9543 3.34097 60.887 3.31775 60.8197C3.26877 60.6782 3.23099 60.533 3.19606 60.3875C3.16338 60.2516 3.06716 59.6017 3.13834 60.1501C3.08514 59.7405 3.07058 59.3256 3.07058 58.9129C3.07058 58.7431 3.07058 58.5732 3.07058 58.4033C3.07058 57.4564 3.07058 56.5096 3.07058 55.5627C3.07058 51.9033 3.07058 48.2439 3.07058 44.5846C3.07058 39.834 3.07058 35.0834 3.07058 30.3329C3.07058 26.0067 3.07058 21.6804 3.07058 17.3543C3.07058 14.9679 3.07058 12.5816 3.07058 10.1953C3.07058 10.0794 3.07058 9.96356 3.07058 9.84769C3.07058 9.4703 3.08805 9.09379 3.12815 8.71852C3.16265 8.39595 3.07073 9.10216 3.11927 8.78927C3.13165 8.70928 3.14708 8.62995 3.16265 8.55054C3.19671 8.37659 3.24271 8.20525 3.29512 8.03603C3.3163 7.96769 3.3409 7.90044 3.36564 7.83326C3.46288 7.56898 3.20363 8.19623 3.31877 7.94433C3.37365 7.82423 3.43916 7.70945 3.50859 7.59729C3.54229 7.54285 3.57963 7.49081 3.61689 7.43877C3.32612 7.84418 3.45721 7.64337 3.53654 7.55195C3.63261 7.44132 3.7415 7.34263 3.85431 7.24954C3.42358 7.60494 3.78895 7.3106 3.91545 7.23629C4.03445 7.16642 4.49481 6.97391 3.97557 7.18643C4.27726 7.06299 4.59699 6.98693 4.91688 6.929C5.02314 6.90978 5.33269 6.87092 4.8414 6.9346C4.92823 6.92339 5.0155 6.9151 5.10262 6.9068C5.28778 6.88911 5.47374 6.88031 5.65956 6.87346C5.80906 6.86793 5.9587 6.86721 6.10827 6.86721C6.71477 6.86721 7.3212 6.86721 7.92771 6.86721C10.8809 6.86721 13.8341 6.86721 16.7873 6.86721C16.2778 6.35772 15.7683 5.84824 15.2588 5.33875C15.2288 7.33324 16.3961 9.27066 18.1763 10.1713C19.0908 10.634 20.0602 10.772 21.0686 10.772C22.9185 10.772 24.7684 10.772 26.6183 10.772C28.7756 10.772 30.9328 10.772 33.09 10.772C33.545 10.772 34 10.772 34.455 10.772C36.3261 10.772 37.9928 9.80169 39.024 8.26516C39.5851 7.42917 39.8733 6.3404 39.8582 5.33875C39.3487 5.84824 38.8393 6.35772 38.3298 6.86721C41.8005 6.86721 45.2711 6.86721 48.7419 6.86721C48.9647 6.86721 49.1873 6.86721 49.4102 6.87346C49.5961 6.87871 49.7817 6.89115 49.967 6.9068C50.0542 6.91422 50.1413 6.92441 50.2283 6.9346C49.7385 6.87689 50.045 6.91102 50.1527 6.929C50.4743 6.98286 50.7899 7.0686 51.0939 7.18643C50.5761 6.98577 51.0298 7.167 51.1538 7.23629C51.2768 7.30507 51.6604 7.60021 51.2148 7.24954C51.3134 7.32712 51.4036 7.4149 51.4902 7.50566C51.5336 7.55108 51.5737 7.59955 51.6137 7.64795C51.2775 7.24189 51.4894 7.48856 51.5602 7.59737C51.6321 7.708 51.6927 7.82562 51.7499 7.9444C51.8699 8.19397 51.6009 7.57088 51.7029 7.83333C51.7288 7.90007 51.751 7.96813 51.7734 8.03611C51.8204 8.17949 51.8564 8.32637 51.8895 8.47353C51.9071 8.55141 51.9213 8.63002 51.9355 8.70855C52.0109 9.124 51.9067 8.43518 51.9402 8.71867C52.0791 9.8939 51.9977 11.1266 51.9977 12.3066C51.9977 16.7222 51.9977 21.1378 51.9977 25.5535C51.9977 26.6047 51.9977 27.6561 51.9977 28.7074C52.7643 28.2675 53.5309 27.8276 54.2976 27.3876C51.087 25.9444 47.4453 25.6723 44.0973 26.8341C40.9566 27.924 38.29 30.149 36.6497 33.0415C36.2386 33.7665 36.4728 34.7079 37.198 35.1327C37.9096 35.5495 38.8788 35.308 39.2892 34.5844C39.459 34.2849 39.6394 33.9929 39.8311 33.707C39.9266 33.5644 40.0274 33.4256 40.1288 33.2874C40.2331 33.1492 40.2317 33.1503 40.1245 33.2909C40.2037 33.1898 40.2861 33.0914 40.3686 32.9929C40.8242 32.4485 41.3351 31.9513 41.8783 31.4951C41.9382 31.4448 42.3367 31.1344 42.0074 31.386C42.1559 31.2724 42.3086 31.1646 42.4621 31.0581C42.7393 30.8659 43.027 30.6893 43.3191 30.521C43.6127 30.3519 43.9155 30.1994 44.2222 30.0556C44.2942 30.0219 44.7654 29.8237 44.3773 29.9837C44.5529 29.9113 44.7311 29.8457 44.9099 29.7817C45.5254 29.5615 46.1611 29.4009 46.8039 29.2838C46.8847 29.2691 47.4073 29.1932 46.9764 29.2504C47.1716 29.2245 47.3676 29.2062 47.5637 29.1899C47.9266 29.1597 48.291 29.1514 48.655 29.1534C49.0553 29.1556 49.4552 29.1839 49.8533 29.2255C50.0329 29.2472 50.0281 29.2455 49.8391 29.2204C49.9256 29.2328 50.0121 29.2461 50.0984 29.2604C50.3129 29.2947 50.5259 29.3382 50.7383 29.3841C51.1166 29.4657 51.4894 29.5717 51.858 29.6895C52.0268 29.7434 52.1935 29.8038 52.3598 29.8651C52.4456 29.8973 52.5311 29.9305 52.6161 29.9648C52.3035 29.841 52.7213 30.0121 52.7546 30.0271C53.2678 30.2578 53.7874 30.3259 54.2976 30.0271C54.7624 29.7548 55.0545 29.2464 55.0545 28.7073C55.0545 25.4308 55.0545 22.1542 55.0545 18.8776C55.0545 16.7043 55.0545 14.5309 55.0545 12.3575C55.0545 11.1825 55.1186 9.97731 55.0063 8.8055C54.8477 7.14982 54.2789 5.66373 52.8619 4.69884C51.7559 3.94568 50.2691 3.8103 48.9718 3.8103C47.2654 3.8103 45.5589 3.8103 43.8525 3.8103C42.0116 3.8103 40.1706 3.8103 38.3297 3.8103C37.506 3.8103 36.7887 4.50553 36.8012 5.33875C36.8031 5.46241 36.7406 6.06921 36.8107 5.57632C36.7833 5.76905 36.734 5.95799 36.6777 6.1441C36.6499 6.23595 36.6154 6.32555 36.5807 6.415C36.7395 6.00443 36.6199 6.30823 36.5757 6.39579C36.533 6.48029 36.484 6.56152 36.4351 6.6426C36.3837 6.72812 36.1164 7.08301 36.4022 6.718C36.2862 6.86619 36.1543 7.00127 36.0183 7.1309C35.9501 7.19582 35.8774 7.25565 35.8048 7.3154C36.1404 7.03919 35.8892 7.24393 35.8091 7.29772C35.6516 7.40347 35.4831 7.4914 35.312 7.57262C35.7078 7.38455 35.4165 7.52713 35.3223 7.56083C35.201 7.60428 35.0761 7.63689 34.9511 7.66789C34.8561 7.69148 34.7595 7.70771 34.6632 7.72394C35.1125 7.64832 34.7763 7.70349 34.6746 7.71004C34.605 7.71455 34.5346 7.7152 34.4649 7.7152C34.4206 7.7152 34.3764 7.7152 34.3321 7.7152C34.1101 7.7152 33.8879 7.7152 33.6659 7.7152C31.6542 7.7152 29.6426 7.7152 27.631 7.7152C25.5958 7.7152 23.5606 7.7152 21.5252 7.7152C21.2899 7.7152 21.0544 7.7152 20.819 7.7152C20.7689 7.7152 20.7187 7.7152 20.6685 7.7152C20.6605 7.7152 20.6526 7.7152 20.6446 7.7152C20.559 7.7152 20.5277 7.71331 20.4424 7.71004C20.376 7.70662 20.3097 7.70152 20.2435 7.69468C20.486 7.73049 20.5238 7.73478 20.3571 7.70763C20.1657 7.67546 19.9787 7.62153 19.7948 7.56083C19.7036 7.5307 19.3992 7.39197 19.8051 7.57262C19.7183 7.53397 19.6346 7.48899 19.5509 7.44401C19.4427 7.38586 18.9369 7.02151 19.3123 7.31533C19.1393 7.17996 18.9835 7.02413 18.8361 6.86182C18.7727 6.79195 18.5781 6.52636 18.8395 6.87761C18.7832 6.80192 18.7325 6.72222 18.6818 6.6426C18.6151 6.53771 18.3509 5.96899 18.5363 6.41507C18.4622 6.23697 18.4087 6.05116 18.3623 5.86432C18.3387 5.76934 18.3225 5.67283 18.3063 5.57639C18.3861 6.05079 18.3205 5.59655 18.3163 5.4873C18.3147 5.43781 18.3146 5.38832 18.3157 5.33883C18.3282 4.5056 17.611 3.81038 16.7873 3.81038C13.3089 3.81038 9.83048 3.81038 6.35209 3.81038C5.35059 3.81038 4.32107 3.85215 3.3623 4.1657C1.82191 4.66951 0.756796 5.81483 0.304956 7.36439C-0.00240793 8.41851 0.0136044 9.52853 0.0136044 10.6166C0.0136044 13.3283 0.0136044 16.04 0.0136044 18.7516C0.0136044 23.2138 0.0136044 27.6759 0.0136044 32.138C0.0136044 36.835 0.0136044 41.5321 0.0136044 46.2292C0.0136044 49.6456 0.0136044 53.062 0.0136044 56.4784C0.0136044 59.1903 -0.319962 62.5235 2.31633 64.1708C3.59404 64.9692 5.15939 65 6.62117 65C7.66525 65 8.7094 65 9.75348 65C13.6921 65 17.6308 65 21.5694 65C26.3282 65 31.087 65 35.8458 65C39.4485 65 43.0511 65 46.6537 65C47.4039 65 48.154 65 48.9041 65C49.748 65 50.606 64.9385 51.4248 64.7252C53.0084 64.3125 54.1206 63.2166 54.6751 61.7005C55.0309 60.7276 55.0547 59.6446 55.0547 58.6187C55.0547 57.7115 55.0547 56.8043 55.0547 55.8972C55.0547 54.1665 55.0547 52.4359 55.0547 50.7053C55.0547 50.1663 54.7624 49.6578 54.2977 49.3855C53.7876 49.0867 53.2679 49.1549 52.7548 49.3855C52.722 49.4003 52.3045 49.5754 52.6162 49.4478C52.4889 49.4999 52.3599 49.5475 52.2308 49.5951C51.987 49.685 51.7389 49.7628 51.4898 49.8365C50.9495 49.9965 50.3963 50.1093 49.8393 50.1921C50.2134 50.1365 49.7759 50.1952 49.722 50.2008C49.5899 50.2145 49.4573 50.224 49.3248 50.2334C49.0571 50.2525 48.7886 50.2583 48.5202 50.2598C48.0648 50.2623 47.6093 50.2326 47.1567 50.1837C47.0666 50.174 46.7039 50.121 47.1521 50.185C47.0501 50.1705 46.9483 50.1532 46.8467 50.1361C46.6447 50.1019 46.444 50.0599 46.244 50.0155C45.8151 49.9202 45.3931 49.7959 44.9774 49.6542C44.7873 49.5893 44.5996 49.5173 44.4129 49.443C44.0832 49.3117 44.7338 49.5833 44.4092 49.4413C44.3177 49.4013 44.2272 49.359 44.1368 49.3167C43.7465 49.1343 43.3684 48.9261 43 48.703C42.6615 48.498 42.3357 48.2723 42.0189 48.0352C42.3917 48.3141 41.8763 47.9158 41.7889 47.8424C41.6129 47.6943 41.4429 47.5389 41.2755 47.3811C40.9885 47.1103 40.7183 46.8223 40.459 46.5251C40.3293 46.3763 40.2051 46.2229 40.0828 46.068C40.3498 46.4061 40.1347 46.1319 40.0833 46.0624C40.005 45.9563 39.9298 45.848 39.8549 45.7394C39.63 45.4128 39.4252 45.0726 39.2334 44.7256C39.1372 44.5513 39.0474 44.3736 38.9599 44.1948C38.916 44.1052 38.8743 44.0144 38.8327 43.9237C38.8052 43.8631 38.7781 43.8022 38.7516 43.741C38.8399 43.9529 38.8526 43.9822 38.7895 43.8292C38.4346 42.9625 38.1956 42.0531 38.0496 41.1289C38.1051 41.4799 38.0379 41.0218 38.0332 40.9804C38.0127 40.7936 37.9995 40.6059 37.9875 40.4182C37.9667 40.0943 37.9643 39.7693 37.9695 39.4448C37.9742 39.1429 37.995 38.8415 38.0222 38.541C38.0287 38.4692 38.1022 37.9163 38.0451 38.3132C38.0691 38.1459 38.0993 37.9796 38.1304 37.8135C38.2454 37.199 38.4178 36.5962 38.6269 36.0074C38.6682 35.8908 38.7133 35.7756 38.7582 35.6604C38.8237 35.4999 38.8195 35.5076 38.7457 35.6837C38.7783 35.6084 38.8117 35.5335 38.8457 35.4588C38.9802 35.1607 39.1312 34.8703 39.2893 34.5842C39.6926 33.8549 39.472 32.9211 38.7411 32.493C38.0353 32.0798 37.0523 32.3134 36.6497 33.0415Z" fill="#5ECE84"/>
<path d="M12.6138 22.4903C15.4693 22.4903 18.3246 22.4903 21.1801 22.4903C25.5471 22.4903 29.9143 22.4903 34.2814 22.4903C35.0651 22.4903 35.8488 22.4903 36.6324 22.4903C37.4656 22.4903 38.1609 21.795 38.1609 20.9618C38.1609 20.1286 37.4656 19.4333 36.6324 19.4333C33.7771 19.4333 30.9215 19.4333 28.0662 19.4333C23.6991 19.4333 19.332 19.4333 14.9649 19.4333C14.1812 19.4333 13.3976 19.4333 12.6139 19.4333C11.7807 19.4333 11.0854 20.1286 11.0854 20.9618C11.0854 21.795 11.7806 22.4903 12.6138 22.4903Z" fill="#5ECE84"/>
<path d="M28.6262 29.72C25.1211 29.72 21.616 29.72 18.1109 29.72C16.2785 29.72 14.4462 29.72 12.6139 29.72C11.7807 29.72 11.0854 30.4153 11.0854 31.2484C11.0854 32.0816 11.7807 32.7769 12.6139 32.7769C16.119 32.7769 19.6242 32.7769 23.1293 32.7769C24.9616 32.7769 26.7939 32.7769 28.6262 32.7769C29.4594 32.7769 30.1547 32.0816 30.1547 31.2484C30.1547 30.4153 29.4594 29.72 28.6262 29.72Z" fill="#5ECE84"/>
<path d="M12.6139 43.0635C16.2082 43.0635 19.8024 43.0635 23.3966 43.0635C24.6546 43.0635 25.9126 43.0635 27.1706 43.0635C28.0037 43.0635 28.699 42.3682 28.699 41.535C28.699 40.7019 28.0037 40.0066 27.1706 40.0066C23.5763 40.0066 19.9821 40.0066 16.3879 40.0066C15.1299 40.0066 13.8719 40.0066 12.6139 40.0066C11.7807 40.0066 11.0854 40.7019 11.0854 41.535C11.0854 42.3682 11.7807 43.0635 12.6139 43.0635Z" fill="#5ECE84"/>
<path d="M30.8098 50.2932C27.4872 50.2932 24.1646 50.2932 20.842 50.2932C18.0993 50.2932 15.3566 50.2932 12.6139 50.2932C11.7807 50.2932 11.0854 50.9885 11.0854 51.8217C11.0854 52.6548 11.7807 53.3501 12.6139 53.3501C15.9365 53.3501 19.2592 53.3501 22.5817 53.3501C25.3244 53.3501 28.0671 53.3501 30.8098 53.3501C31.643 53.3501 32.3383 52.6548 32.3383 51.8217C32.3383 50.9885 31.643 50.2932 30.8098 50.2932Z" fill="#5ECE84"/>
<path d="M36.8018 5.38597C36.8005 5.48678 36.7967 5.58678 36.7903 5.68744C36.7675 6.04175 36.8526 5.32614 36.7943 5.67303C36.7621 5.86438 36.7082 6.05136 36.6475 6.23535C36.6173 6.32655 36.4786 6.63086 36.6592 6.22509C36.6206 6.31185 36.5756 6.39562 36.5306 6.47925C36.4859 6.56259 36.4351 6.6425 36.3843 6.7222C36.3498 6.77482 36.3142 6.82665 36.2772 6.87752C36.4226 6.69425 36.4442 6.66521 36.3422 6.79054C36.2225 6.93589 36.0876 7.0677 35.9484 7.19398C35.8785 7.25745 35.613 7.452 35.9642 7.19056C35.8885 7.2469 35.8088 7.29763 35.7292 7.34829C35.6243 7.41503 35.0555 7.67923 35.5016 7.49385C35.2935 7.58032 35.0754 7.64029 34.8557 7.68891C34.7587 7.71031 34.4184 7.74743 34.8733 7.69459C34.7739 7.70616 34.6738 7.70995 34.5739 7.7138C34.536 7.71533 34.498 7.71511 34.4601 7.71511C34.4115 7.71511 34.3629 7.71511 34.3142 7.71511C34.084 7.71511 33.8537 7.71511 33.6234 7.71511C31.5896 7.71511 29.5557 7.71511 27.5219 7.71511C25.5001 7.71511 23.4782 7.71511 21.4564 7.71511C21.2328 7.71511 21.0092 7.71511 20.7857 7.71511C20.7427 7.71511 20.6996 7.71511 20.6566 7.71511C20.6187 7.71511 20.581 7.71431 20.5428 7.7138C20.4427 7.71249 20.343 7.70354 20.2434 7.69459C20.7184 7.73746 20.2742 7.69182 20.1658 7.6678C19.9775 7.62617 19.7946 7.56329 19.615 7.49385C20.0608 7.66628 19.4978 7.41481 19.3875 7.34829C19.3067 7.29959 19.2295 7.245 19.1525 7.19056C19.5054 7.44006 19.2425 7.25811 19.1683 7.19398C19.0021 7.05038 18.854 6.8872 18.7148 6.71791C19.0146 7.08226 18.649 6.58966 18.5861 6.47925C18.5391 6.39671 18.4983 6.31083 18.4575 6.22509C18.6456 6.62089 18.503 6.32946 18.4693 6.23535C18.4039 6.05267 18.3595 5.86321 18.3225 5.67303C18.2552 5.3276 18.3584 6.04102 18.3266 5.68744C18.3161 5.57171 18.3139 5.45482 18.3156 5.33866C18.3175 5.21879 18.3258 5.10008 18.3363 4.98064C18.3006 5.38357 18.3412 5.00568 18.3585 4.92467C18.3827 4.81171 18.417 4.7013 18.4511 4.5911C18.4737 4.51832 18.6266 4.16925 18.4645 4.53171C18.5568 4.32523 18.6761 4.13199 18.8029 3.9453C19.0173 3.62971 18.5937 4.19036 18.8427 3.90221C18.9396 3.79012 19.0474 3.68823 19.1564 3.58815C19.2147 3.53458 19.511 3.32052 19.1907 3.55372C19.2798 3.4888 19.3742 3.43166 19.4684 3.37475C19.5631 3.31739 19.6625 3.26841 19.7617 3.2195C20.102 3.05174 19.4504 3.33384 19.8096 3.20604C20.0234 3.12998 20.2463 3.08274 20.4697 3.04562C20.0412 3.1168 20.5559 3.05683 20.6484 3.05683C21.0658 3.05683 21.4833 3.05683 21.9007 3.05683C24.0409 3.05683 26.181 3.05683 28.3211 3.05683C30.1477 3.05683 31.9742 3.05683 33.8008 3.05683C33.9877 3.05683 34.1749 3.05683 34.3618 3.05683C34.3972 3.05683 34.4327 3.05683 34.4682 3.05683C34.5713 3.05683 34.6738 3.06192 34.7767 3.06862C35.133 3.09177 34.4168 3.00625 34.7656 3.06542C34.8624 3.08187 34.9579 3.10574 35.0531 3.12961C35.1772 3.16069 35.76 3.40102 35.3244 3.20531C35.4988 3.2837 35.6639 3.38137 35.8245 3.48458C35.9025 3.5348 36.1643 3.74179 35.8216 3.47039C35.896 3.52934 35.9659 3.59353 36.0357 3.65773C36.1252 3.7399 36.5286 4.2186 36.2391 3.84275C36.3554 3.99377 36.4547 4.15717 36.5473 4.32341C36.594 4.40711 36.6344 4.49423 36.6746 4.58113C36.4905 4.18366 36.6285 4.48331 36.6605 4.57567C36.7245 4.76091 36.7671 4.95276 36.802 5.14535C36.7147 4.66498 36.7998 5.25598 36.8018 5.38597C36.8143 6.2189 37.4876 6.91442 38.3303 6.91442C39.154 6.91442 39.8713 6.2192 39.8587 5.38597C39.8285 3.37613 38.7031 1.44657 36.8673 0.565745C35.9581 0.129554 35.01 0 34.0175 0C32.1428 0 30.2682 0 28.3935 0C26.2441 0 24.0946 0 21.9451 0C21.5141 0 21.083 0 20.652 0C19.662 0 18.677 0.280507 17.8312 0.79232C16.7594 1.44082 16.0503 2.4242 15.581 3.56318C14.7829 5.50017 15.4563 7.88179 16.937 9.29233C17.9787 10.2848 19.3598 10.772 20.7856 10.772C22.4311 10.772 24.0767 10.772 25.7222 10.772C27.977 10.772 30.2318 10.772 32.4867 10.772C33.0958 10.772 33.705 10.772 34.3142 10.772C35.7472 10.772 37.0269 10.2917 38.11 9.35558C39.2391 8.37977 39.8398 6.85641 39.8587 5.38604C39.8694 4.55282 39.1553 3.85759 38.3302 3.85759C37.489 3.85752 36.8125 4.55304 36.8018 5.38597Z" fill="#5ECE84"/>
<path d="M59.0736 39.7062C59.0717 40.1425 59.0487 40.5768 59.004 41.0108C58.9952 41.0967 58.9441 41.4699 59.0052 41.0307C58.9905 41.1365 58.973 41.2419 58.9554 41.3474C58.9148 41.5916 58.8635 41.834 58.808 42.0752C58.7137 42.4843 58.5927 42.8868 58.4561 43.2836C58.3883 43.4804 58.3129 43.6744 58.2351 43.8674C58.3949 43.4713 58.2599 43.8064 58.2258 43.8832C58.1697 44.0092 58.11 44.1335 58.0498 44.2574C57.8697 44.6277 57.6661 44.9861 57.4492 45.3358C57.3412 45.5102 57.2265 45.6803 57.1098 45.8488C57.0515 45.933 56.9911 46.0157 56.9307 46.0983C56.8901 46.1533 56.8492 46.2079 56.8078 46.262C56.9429 46.0878 56.9595 46.0653 56.8575 46.1941C56.3263 46.8599 55.7176 47.4619 55.0597 48.0019C54.996 48.0542 54.7122 48.2724 55.0474 48.0157C54.9662 48.0778 54.8833 48.1381 54.8005 48.1982C54.6347 48.3186 54.4643 48.4328 54.2926 48.5447C53.919 48.788 53.5293 49.0057 53.1313 49.2061C53.039 49.2526 52.9456 49.2966 52.8522 49.3408C53.482 49.0437 52.8158 49.358 52.6297 49.4417C52.2166 49.6274 52.9102 49.3313 52.4882 49.4984C52.3602 49.5491 52.2305 49.5952 52.1008 49.6413C51.5737 49.8284 51.0314 49.9701 50.4838 50.0821C50.3558 50.1083 50.2271 50.1303 50.0984 50.1523C50.0445 50.1615 49.6101 50.2194 49.9845 50.172C49.7212 50.2054 49.4563 50.2256 49.1915 50.2416C48.6868 50.272 48.1803 50.2635 47.6762 50.231C47.4681 50.2174 47.2605 50.196 47.0534 50.1718C46.6887 50.1293 47.4118 50.2246 47.0497 50.1697C46.948 50.1543 46.8466 50.1362 46.7452 50.1182C46.3103 50.0409 45.881 49.934 45.4575 49.8092C45.0713 49.6954 44.6925 49.5574 44.3198 49.4053C44.757 49.5836 44.1507 49.3236 44.0465 49.2738C43.8368 49.1737 43.6316 49.0651 43.4282 48.953C43.0809 48.7618 42.7457 48.5493 42.419 48.3249C42.3256 48.2607 41.8025 47.8684 42.1713 48.1539C41.9893 48.013 41.813 47.8646 41.6392 47.7135C41.3415 47.4546 41.0599 47.1779 40.7888 46.8915C40.6532 46.7481 40.5229 46.6 40.3946 46.4502C40.3303 46.3753 40.2678 46.2988 40.2055 46.2224C40.1641 46.1713 40.123 46.1198 40.0825 46.068C40.2204 46.2475 40.2401 46.2721 40.1416 46.1419C39.645 45.4803 39.2251 44.763 38.874 44.0145C38.8316 43.9241 38.7914 43.8326 38.7513 43.7411C38.9268 44.141 38.7846 43.8177 38.752 43.7361C38.6773 43.5495 38.6097 43.3599 38.5445 43.1697C38.3873 42.7111 38.2647 42.2415 38.1639 41.7676C38.1369 41.6409 38.114 41.5133 38.0911 41.3857C38.0833 41.3422 38.0191 40.9141 38.0653 41.2589C38.0279 40.9799 38.0051 40.6993 37.9871 40.4184C37.9497 39.8358 37.964 39.2506 38.0102 38.6691C38.0204 38.5412 38.0346 38.4138 38.0488 38.2863C38.0965 37.8591 37.9987 38.6109 38.0641 38.1877C38.1027 37.938 38.1531 37.6902 38.2073 37.4435C38.3234 36.9157 38.4831 36.3983 38.6692 35.8913C38.7117 35.7752 38.7578 35.6606 38.804 35.546C38.6638 35.8945 38.8211 35.5127 38.8454 35.4589C38.9462 35.2352 39.0573 35.0163 39.1716 34.7991C39.4299 34.3088 39.7295 33.8411 40.0526 33.391C40.08 33.3529 40.3416 33.0138 40.1242 33.2909C40.2035 33.1898 40.2859 33.0914 40.3684 32.9929C40.5332 32.7959 40.7072 32.607 40.8842 32.421C41.2222 32.0657 41.5862 31.7358 41.9645 31.424C42.0191 31.3789 42.3227 31.145 42.0073 31.386C42.0964 31.3179 42.1873 31.2524 42.2782 31.1868C42.4604 31.0555 42.6478 30.9318 42.837 30.8108C43.2485 30.5475 43.6793 30.3152 44.1196 30.1038C44.2217 30.0548 44.3252 30.0086 44.4287 29.9625C44.784 29.8042 44.1212 30.0866 44.4828 29.9414C44.6946 29.8565 44.91 29.7806 45.1262 29.7079C45.6 29.5485 46.0853 29.4258 46.5749 29.3269C46.6891 29.3038 46.8039 29.284 46.9189 29.2642C46.9922 29.2516 47.389 29.1958 46.9764 29.2505C47.2108 29.2194 47.4465 29.1987 47.6822 29.1814C48.2288 29.1413 48.7779 29.1462 49.3245 29.1792C49.4571 29.1872 49.5894 29.1995 49.7217 29.2119C49.7752 29.2168 50.2141 29.2721 49.839 29.2205C50.098 29.2561 50.3551 29.3043 50.6111 29.3567C51.1616 29.4693 51.7013 29.6296 52.2304 29.8176C52.3601 29.8636 52.488 29.9143 52.6158 29.9649C52.3032 29.8411 52.7211 30.0122 52.7544 30.0272C52.8762 30.0786 52.9979 30.1299 53.1196 30.1813C52.8223 30.0542 52.7642 30.0325 52.9455 30.116C53.0389 30.1601 53.1311 30.2065 53.2232 30.2529C53.6212 30.4534 54.0051 30.6808 54.3783 30.924C54.55 31.0359 54.7173 31.1542 54.8831 31.2746C54.9497 31.323 55.2329 31.5426 54.8998 31.283C54.9804 31.3459 55.0595 31.4107 55.1385 31.4756C55.4807 31.7564 55.8038 32.0601 56.1133 32.3765C56.3991 32.6687 56.6663 32.9787 56.9211 33.2982C56.6582 32.9686 56.881 33.2475 56.9306 33.3141C56.9917 33.3962 57.0507 33.4799 57.1097 33.5636C57.2477 33.7591 57.3773 33.9604 57.5032 34.1637C57.7748 34.6018 58.0124 35.0601 58.2257 35.529C58.2603 35.6052 58.3985 35.9401 58.235 35.5449C58.288 35.673 58.3371 35.8027 58.3855 35.9325C58.4831 36.1935 58.5681 36.4591 58.6473 36.7263C58.7976 37.234 58.9073 37.7529 58.9894 38.2757C59.0142 38.4461 59.0107 38.4168 58.9791 38.1879C58.988 38.259 58.9963 38.3302 59.0039 38.4016C59.02 38.5449 59.0316 38.6886 59.0424 38.8324C59.0646 39.123 59.0723 39.4146 59.0736 39.7062C59.0773 40.5394 59.7661 41.2347 60.6021 41.2347C61.4325 41.2347 62.1342 40.5394 62.1305 39.7062C62.1136 35.9038 60.5059 32.2099 57.6867 29.6478C56.9865 29.0113 56.2123 28.4414 55.3983 27.9591C55.0435 27.7489 54.6755 27.5616 54.3012 27.3888C54.1794 27.3375 54.0578 27.2861 53.9361 27.2348C54.2141 27.3504 54.2511 27.3644 54.047 27.2765C53.8421 27.1871 53.6354 27.1017 53.4285 27.017C53.1401 26.8989 52.8451 26.7974 52.5483 26.7026C50.3604 26.0033 48.0065 25.9475 45.7623 26.379C41.631 27.1731 37.9671 30.1133 36.2059 33.916C34.3417 37.941 34.5285 42.6771 36.7399 46.528C38.5404 49.6634 41.6396 51.9896 45.1337 52.8918C47.1924 53.4233 49.347 53.4283 51.4239 53.0036C51.9293 52.9002 52.4257 52.7563 52.9134 52.5889C53.2554 52.4715 53.5879 52.33 53.9207 52.1893C54.0259 52.1448 54.4725 51.9713 53.9361 52.1776C54.1564 52.0929 54.3693 51.9936 54.5815 51.8912C55.4436 51.4753 56.2276 50.9408 56.9807 50.3539C60.2301 47.8219 62.1122 43.8085 62.1305 39.7062C62.1342 38.873 61.4325 38.1777 60.6021 38.1777C59.766 38.1777 59.0773 38.873 59.0736 39.7062Z" fill="#5ECE84"/>
<path d="M52.1207 35.6208C50.1262 37.6154 48.1317 39.6099 46.1371 41.6044C46.8576 41.6044 47.5783 41.6044 48.2987 41.6044C47.179 40.4847 46.0593 39.365 44.9396 38.2453C44.3507 37.6565 43.3669 37.6565 42.778 38.2453C42.1892 38.8342 42.1892 39.818 42.778 40.4069C43.8978 41.5266 45.0175 42.6463 46.1371 43.766C46.726 44.3548 47.7098 44.3548 48.2987 43.766C50.2932 41.7714 52.2878 39.7769 54.2823 37.7824C54.8711 37.1935 54.8711 36.2097 54.2823 35.6208C53.6935 35.032 52.7096 35.032 52.1207 35.6208Z" fill="#5ECE84"/>
</svg>
