<svg width="67" height="65" viewBox="0 0 67 65" fill="none" xmlns="http://www.w3.org/2000/svg">
<path d="M35.6579 15.1804H53.3307C54.1614 15.1804 54.8412 14.5007 54.8412 13.6699V1.51049C54.8412 0.67972 54.1614 0 53.3307 0H34.1475C33.3167 0 32.637 0.67972 32.637 1.51049V26.358H35.6579V15.1804ZM35.6579 3.02098H51.8202V12.1594H35.6579V3.02098Z" fill="#5ECE84"/>
<path d="M66.774 56.87C67.0761 56.4169 67.0005 55.8127 66.6984 55.3595L56.8803 39.6504C56.2005 38.5176 54.9922 37.9134 53.7082 37.9134C52.4243 37.9134 51.2159 38.5176 50.5362 39.6504L48.0439 43.5022L45.8537 40.028C45.8537 39.6504 45.6271 39.3483 45.4005 39.0462C45.325 38.9707 45.2495 38.8952 45.174 38.8952L39.8873 30.4364C38.6789 28.4728 36.4887 27.2644 34.1474 27.2644H34.0719C31.7306 27.2644 29.6159 28.3973 28.4075 30.3609L22.139 39.7259L19.4956 35.4966C18.8159 34.3637 17.6075 33.7595 16.3236 33.7595C15.0397 33.7595 13.8313 34.3637 13.1516 35.4966L0.236907 55.284C-0.0651911 55.7371 -0.065191 56.3413 0.161382 56.7945C0.387956 57.2476 0.916627 57.5497 1.52082 57.5497H10.5082L7.26068 62.5343C6.95859 62.9875 6.95859 63.5917 7.18516 64.0448C7.41173 64.498 7.9404 64.8001 8.5446 64.8001H58.7684C59.2971 64.8001 59.8257 64.498 60.0523 64.0448C60.3544 63.5917 60.2789 62.9875 59.9768 62.5343L56.8803 57.6252H65.4145C65.9432 57.6252 66.4719 57.3231 66.774 56.87ZM30.8998 31.8714C31.5796 30.7385 32.788 30.1343 34.0719 30.1343C35.3558 30.1343 36.5642 30.8141 37.2439 31.8714L42.304 40.028L39.8117 42.8224L37.546 41.463C36.9418 41.0854 36.111 41.2364 35.5824 41.7651L32.4859 45.4658L30.0691 41.312C29.8425 40.9343 29.5404 40.7078 29.0873 40.5567C28.7096 40.4812 28.2565 40.5567 27.8789 40.7833L24.9334 42.7469L24.4803 41.3875L30.8998 31.8714ZM4.31523 54.6043L15.7194 37.0826C15.946 36.7805 16.2481 36.705 16.3236 36.705C16.4747 36.705 16.7768 36.7805 16.9278 37.0826L20.3264 42.5203L12.4719 54.6043H4.31523ZM11.339 61.9301L22.5166 44.7106L22.8943 45.6924C23.0453 46.1455 23.4229 46.4476 23.8761 46.5987C24.3292 46.7497 24.7824 46.6742 25.16 46.4476L28.332 44.2574L30.9754 48.9399C31.2019 49.3931 31.6551 49.6197 32.1838 49.6952C32.2593 49.6952 32.2593 49.6952 32.3348 49.6952C32.788 49.6952 33.2411 49.4686 33.4677 49.1665L37.0928 44.7861L39.2831 46.1455C39.8873 46.5231 40.718 46.3721 41.1712 45.8434L43.8901 42.8224L56.0495 61.9301H11.339ZM54.9922 54.6043L49.781 46.221L53.0285 41.1609C53.2551 40.8588 53.4817 40.8588 53.6327 40.7833C53.7838 40.7833 54.0859 40.8588 54.2369 41.1609L62.6201 54.5287H54.9922V54.6043Z" fill="#5ECE84"/>
<path d="M31 29.5H37L58 63H9L31 29.5Z" fill="#5ECE84" fill-opacity="0.2"/>
<path d="M16 35L21.5 42L13.5 56H2L16 35Z" fill="#5ECE84" fill-opacity="0.2"/>
<path d="M52.7949 38L48 44.3333L54.9744 57H65L52.7949 38Z" fill="#5ECE84" fill-opacity="0.2"/>
</svg>
