<svg width="162" height="107" viewBox="0 0 162 107" fill="none" xmlns="http://www.w3.org/2000/svg">
<path fill-rule="evenodd" clip-rule="evenodd" d="M74.8851 69.5017C76.8983 60.4426 81.2601 51.719 87.635 45.0086C87.2995 30.5811 92.6678 14.1405 105.753 6.42348C120.852 -2.30011 143.667 -1.29354 159.437 4.41035C161.114 5.08139 162.121 6.759 161.786 8.43662C158.43 25.2128 148.365 45.3441 133.266 54.0677C120.516 61.1137 104.411 58.094 91.9968 51.3835C79.918 65.14 79.5825 85.2713 82.9377 102.383C83.9443 106.745 76.5628 107.751 75.5562 103.725C73.8786 96.008 73.2075 87.9555 73.543 79.9029C72.5365 78.2253 71.1944 76.5477 69.8523 74.8701C57.7735 81.9161 41.3329 84.9358 28.583 77.5543C13.82 69.1662 3.41881 49.0349 0.0635817 32.2587C-0.271941 30.5811 0.734627 28.568 2.74776 27.8969C18.5173 22.5286 41.3329 21.522 56.0959 29.9101C69.5168 37.6271 74.5496 54.0677 74.5496 68.8307C74.5496 69.1662 74.8851 69.1662 74.8851 69.5017ZM153.733 10.4498C139.977 6.759 122.194 5.75244 109.78 12.7984C100.385 18.1668 96.3586 29.5745 95.352 39.9757L113.135 29.5745C116.825 27.5614 120.516 33.9363 116.825 35.9495L99.0428 46.3507C108.437 50.7125 120.181 52.7256 129.575 47.3572C142.325 40.3113 150.042 24.2062 153.733 10.4498ZM8.45165 34.2719C12.1424 47.6928 19.8594 63.7979 32.2738 71.1794C41.6684 76.5477 53.4117 74.5346 62.8063 70.1728L45.0236 59.7716C41.3329 57.7584 45.0236 51.048 48.7144 53.3967L66.4971 63.4623C65.4905 53.0611 61.7998 41.9889 52.4051 36.6205C39.9908 29.239 21.8726 30.5811 8.45165 34.2719Z" fill="#5ECE84"/>
</svg>
