<svg width="86" height="106" viewBox="0 0 86 106" fill="none" xmlns="http://www.w3.org/2000/svg">
<path d="M16.5385 0C12.4709 0 9.0225 2.84069 8.02809 6.625H3.30774C3.19297 6.61901 3.07796 6.61901 2.96319 6.625C2.14697 6.71067 1.39169 7.09713 0.84409 7.7093C0.296487 8.32147 -0.00434172 9.11563 4.73584e-05 9.9375V44.1667C4.73584e-05 58.2829 10.5901 69.9574 24.2564 71.5638V76.4635C24.2564 92.6384 36.466 106 51.8205 106C67.175 106 79.3846 92.6384 79.3846 76.4635V64.5592C83.2201 63.1808 86 59.4973 86 55.2083C86 49.7592 81.5181 45.2708 76.0769 45.2708C70.6357 45.2708 66.1539 49.7592 66.1539 55.2083C66.1539 59.4973 68.9337 63.1808 72.7692 64.5592V76.4635C72.7692 89.3448 63.3421 99.375 51.8205 99.375C40.2989 99.375 30.8718 89.3448 30.8718 76.4635V71.5638C44.532 69.8897 55.1282 58.2144 55.1282 44.0977V9.9375C55.1281 9.059 54.7796 8.2165 54.1593 7.59531C53.539 6.97411 52.6978 6.62509 51.8205 6.625H47.1002C46.1058 2.84069 42.6574 0 38.5898 0C33.7604 0 29.7693 3.99696 29.7693 8.83333V11.0417C29.7693 15.878 33.7604 19.875 38.5898 19.875C42.6574 19.875 46.1058 17.0343 47.1002 13.25H48.5128V44.0977C48.5128 55.7774 39.2257 65.1116 27.5641 65.1458C15.913 65.18 6.61543 55.8464 6.61543 44.1667V13.25H8.02809C9.0225 17.0343 12.4709 19.875 16.5385 19.875C21.3678 19.875 25.359 15.878 25.359 11.0417V8.83333C25.359 3.99696 21.3678 0 16.5385 0ZM16.5385 6.625C17.8174 6.625 18.7436 7.55262 18.7436 8.83333V11.0417C18.7436 12.3224 17.8174 13.25 16.5385 13.25C15.2596 13.25 14.3334 12.3224 14.3334 11.0417V8.83333C14.3334 7.55262 15.2596 6.625 16.5385 6.625ZM38.5898 6.625C39.8686 6.625 40.7949 7.55262 40.7949 8.83333V11.0417C40.7949 12.3224 39.8686 13.25 38.5898 13.25C37.3109 13.25 36.3846 12.3224 36.3846 11.0417V8.83333C36.3846 7.55262 37.3109 6.625 38.5898 6.625ZM76.0769 51.8958C77.9429 51.8958 79.3846 53.3397 79.3846 55.2083C79.3846 57.077 77.9429 58.5208 76.0769 58.5208C74.211 58.5208 72.7692 57.077 72.7692 55.2083C72.7692 53.3397 74.211 51.8958 76.0769 51.8958Z" fill="#5ECE84"/>
</svg>
