<svg width="115" height="106" viewBox="0 0 115 106" fill="none" xmlns="http://www.w3.org/2000/svg">
<path d="M115 35.0069C115 25.6568 111.359 16.8664 104.748 10.2541C98.138 3.64175 89.3493 0 80.0023 0C71.5777 0 63.6082 2.95776 57.2787 8.38303C51.0022 3.15443 43.1605 0.304647 34.9115 0.304647C25.5721 0.304647 16.7916 3.94289 10.1867 10.5494C-3.18587 23.9264 -3.40991 45.7839 9.61846 59.4498C9.70072 59.5595 9.79057 59.6634 9.88859 59.7609L55.2589 105.145C55.8061 105.692 56.5477 106 57.3219 106C58.0961 106 58.8376 105.692 59.3848 105.145L59.7226 104.807C59.7361 104.794 59.753 104.785 59.7664 104.771L69.6245 94.9102C69.6583 94.8763 69.6857 94.8396 69.719 94.8051L104.748 59.7609C111.359 53.1491 115 44.3576 115 35.0069ZM100.623 14.3808C106.131 19.8901 109.166 27.2157 109.166 35.0069C109.166 42.399 106.431 49.3679 101.447 54.7692C101.078 52.5007 100.025 50.4067 98.3684 48.7504L71.2061 21.5768C70.0667 20.437 68.219 20.437 67.0807 21.5768C67.0621 21.596 67.0487 21.6188 67.0306 21.6381C67.009 21.6591 66.9833 21.6731 66.9617 21.6947L50.1335 38.5284C48.1021 40.5611 44.7958 40.5611 42.7638 38.529C41.7795 37.5445 41.2375 36.2354 41.2375 34.8429C41.2375 33.4504 41.7801 32.1414 42.7643 31.1568L59.592 14.323C59.7559 14.1585 59.8901 13.9764 60.0068 13.7873C65.4378 8.65733 72.5007 5.83614 80.0018 5.83614C87.791 5.83614 95.1147 8.87093 100.623 14.3808ZM57.3213 98.9546L50.8698 92.5016L59.0435 84.3252C59.9052 83.462 61.0505 82.9869 62.2699 82.9869C62.2699 82.9869 62.2699 82.9869 62.2704 82.9869C63.4892 82.9869 64.635 83.462 65.4973 84.3258C67.2429 86.0719 67.2715 88.8902 65.5942 90.6778L57.3213 98.9546ZM33.7517 59.0279L25.5797 67.2037L19.1241 60.7466L27.2979 52.5702C28.1602 51.707 29.3054 51.2319 30.5248 51.2319H30.5253C31.7435 51.2319 32.8894 51.707 33.7522 52.5713C34.6151 53.4333 35.0894 54.5796 35.0894 55.7993C35.0894 57.0191 34.6151 58.1647 33.7517 59.0279ZM37.8799 63.1546C38.7417 62.2914 39.8875 61.8169 41.1068 61.8169C42.3262 61.8169 43.472 62.2914 44.3355 63.1558C45.1984 64.0183 45.6727 65.164 45.6727 66.3831C45.6727 67.6029 45.1978 68.7497 44.3343 69.6129L36.1618 77.7893L29.7056 71.331L37.8799 63.1546ZM48.4597 73.7402C49.3226 72.877 50.4684 72.4019 51.6878 72.4019C52.9071 72.4019 54.0541 72.877 54.9164 73.7396C56.6953 75.5208 56.6953 78.4184 54.917 80.1984L46.7427 88.3737L40.2866 81.9154L48.4597 73.7402ZM14.3115 14.6767C19.8143 9.17266 27.1304 6.14137 34.9115 6.14137C41.6033 6.14137 47.9743 8.39237 53.1323 12.5314L38.6384 27.0301C36.5527 29.1171 35.4033 31.8916 35.4033 34.8423C35.4033 37.7942 36.5521 40.5693 38.639 42.6563C40.7924 44.8093 43.6202 45.886 46.4487 45.886C49.2777 45.886 52.1061 44.8087 54.2595 42.6546L69.1414 27.766L94.2419 52.8766C95.2267 53.8611 95.7681 55.1708 95.7681 56.5633C95.7681 57.9558 95.2261 59.2648 94.243 60.2482C92.211 62.2815 88.9042 62.2798 86.8727 60.2488L64.8258 38.1928C64.631 37.9979 64.4098 37.8485 64.1811 37.7201C63.0435 36.9182 61.4624 37.0198 60.4449 38.0376C59.3055 39.1774 59.3055 41.0251 60.4449 42.1643L82.49 64.2179C83.4749 65.2025 84.0169 66.5121 84.0169 67.904C84.0169 69.296 83.4749 70.6056 82.49 71.5907C81.5064 72.5753 80.199 73.1169 78.8069 73.1169H78.8063C77.4137 73.1163 76.1051 72.5741 75.1209 71.5896L53.4019 49.8645C53.4007 49.864 53.3995 49.8628 53.3989 49.8622L53.0751 49.5383C51.9363 48.3997 50.0898 48.3991 48.9498 49.5383C47.8104 50.6781 47.8104 52.5258 48.9498 53.665L60.3807 65.0998L71.3216 76.0449C73.2405 77.965 73.3449 81.0196 71.639 83.0657C71.1448 82.0304 70.4809 81.0569 69.625 80.2002C67.6612 78.234 65.0493 77.1508 62.2716 77.1508C62.271 77.1508 62.2704 77.1508 62.2699 77.1508C62.2039 77.1508 62.1392 77.1596 62.0738 77.1607C62.1234 74.4335 61.1176 71.6905 59.0435 69.614C57.0792 67.6484 54.4672 66.5658 51.6895 66.5658C51.6895 66.5658 51.6889 66.5658 51.6884 66.5658C51.6248 66.5658 51.5623 66.574 51.4987 66.5751C51.4999 66.5109 51.5081 66.4473 51.5081 66.3831C51.5081 63.604 50.4258 60.9917 48.4614 59.0284C46.4977 57.0628 43.8863 55.9802 41.108 55.9802C41.0438 55.9802 40.9802 55.9884 40.9161 55.9896C40.9172 55.9259 40.9254 55.8629 40.9254 55.7987C40.9254 53.019 39.8432 50.4067 37.8794 48.4434C35.9156 46.4772 33.3048 45.3946 30.5265 45.3946C30.5259 45.3946 30.5253 45.3946 30.5248 45.3946C27.7465 45.3946 25.1351 46.4778 23.1725 48.4434L14.9999 56.6187L14.2689 55.8874C14.2036 55.8034 14.1336 55.7234 14.0583 55.6464C2.98147 44.2759 3.09523 25.8961 14.3115 14.6767Z" fill="#5ECE84"/>
</svg>
