<svg width="54" height="56" viewBox="0 0 54 56" fill="none" xmlns="http://www.w3.org/2000/svg">
<path d="M2.12769 39.4138C4.64693 36.1748 11.7248 34.4953 11.7248 34.4953C11.7248 34.4953 17.7775 40.2238 27.3802 40.0736L27.6801 39.7737L28.0708 40.0528C32.625 39.8495 37.9377 38.3089 43.7553 34.2554C47.9134 35.6414 50.6288 36.9288 53.2324 39.4138C43.9213 45.8234 36.5481 45.0698 31.0391 42.173L28.0708 40.0528C27.8386 40.0632 27.6084 40.0701 27.3802 40.0736L26.1205 41.3333L25.1608 41.9331L24.2011 42.5329C17.963 45.652 9.06152 45.0489 2.12769 39.4138Z" fill="#22C37A" fill-opacity="0.4"/>
<path d="M36.0179 22.3201C37.0278 10.0007 28.9618 2.69631 27.3185 0.304199C26.9158 0.891055 17.6802 8.75697 18.6087 22.2152C10.4202 16.0882 1.55166 16.3927 1.16809 16.3177C1.29317 16.8012 0.518476 25.4325 9.36369 33.1183C16.5976 39.3994 26.738 42.3366 37.2457 38.1972C40.2993 36.9904 43.1222 35.3009 45.5883 33.1707C54.5797 25.3742 53.5641 17.0286 53.7419 16.3282C53.131 16.4463 44.4067 15.9507 36.0179 22.3201Z" fill="#21C37A" fill-opacity="0.55"/>
<path d="M13.9985 50.3945C13.9788 47.1887 14.1243 46.163 16.0437 44.1236C20.5098 44.2926 25.2809 42.7712 27.6765 39.6526C30.9684 42.2514 34.1071 44.1358 38.7649 43.984C40.5164 45.5631 41.5812 46.8571 41.3731 50.3945C35.1446 50.7859 32.2986 49.8532 27.6765 43.6114C24.4255 49.2265 21.413 50.1998 13.9985 50.3945Z" fill="#22C37A" fill-opacity="0.25"/>
<path fill-rule="evenodd" clip-rule="evenodd" d="M4.8376 39.5861C7.72099 41.581 11.3038 42.6652 15.0857 42.6652C15.8576 42.6652 16.6222 42.6199 17.374 42.5304C17.4038 42.5126 17.4337 42.495 17.4638 42.4774L17.4868 42.5167C18.3551 42.4081 19.2061 42.2403 20.0313 42.0152L20.0164 41.9586C20.0587 41.9475 20.1155 41.9339 20.1853 41.9172L20.1856 41.9171L20.1856 41.9171C20.6843 41.798 21.8416 41.5215 23.08 40.8337C24.4781 40.0572 25.8723 38.8108 26.4349 36.7764L28.556 37.363C28.466 37.6884 28.3603 37.9983 28.2412 38.2936L28.6491 38.2364C28.8165 39.4303 28.7313 40.5582 28.4981 41.5903C28.7305 42.31 29.0493 42.9764 29.3996 43.573C29.7307 44.1369 30.0817 44.6239 30.3958 45.0166L30.4079 45.0217C30.442 45.0678 30.4766 45.1136 30.5117 45.1593C30.9406 45.6796 31.2821 46.0076 31.3765 46.0939L31.3513 46.1215C31.5659 46.3388 31.793 46.5496 32.0325 46.7525C34.0673 48.4936 36.7029 49.5509 39.5403 49.7914C39.359 48.1058 38.682 45.7688 36.2982 44.3782L37.407 42.4774C39.9629 43.9683 41.0488 46.2628 41.5012 48.1936C41.7275 49.077 41.8438 49.9836 41.8438 50.9041V51.9553L40.7819 51.9659H40.7607C36.9487 51.9659 33.3598 50.681 30.6521 48.3663C30.3956 48.1483 30.1498 47.9236 29.9152 47.6927L29.8918 47.7182C29.6866 47.5306 28.9961 46.8605 28.2474 45.8265V55.7497H26.5358V45.8807C25.7374 47.0203 24.9762 47.7598 24.7589 47.9584L24.7192 47.9149C24.5568 48.0685 24.3895 48.219 24.2175 48.3663C21.5098 50.6812 17.9208 51.9659 14.1089 51.9659H14.0876L13.0257 51.9553V50.9041C13.0257 49.9196 13.1588 48.9511 13.4134 48.0136C13.676 46.9725 14.1261 45.8383 14.8905 44.7879C10.079 44.7452 5.55752 43.1245 2.14205 40.1911L1.19702 39.3841L2.14205 38.5772C3.40784 37.49 4.82137 36.6015 6.32444 35.9036C7.95819 35.0639 10.0643 34.4028 13.1786 33.9414L13.5011 36.1183C10.3459 36.5857 8.44227 37.2456 7.06141 38.0038C6.20041 38.4765 5.52161 38.9961 4.8376 39.5861ZM18.2917 44.5515C16.1354 45.9565 15.5048 48.173 15.3307 49.7904C18.1738 49.548 20.8051 48.4912 22.837 46.7525C22.9913 46.6202 23.1412 46.4851 23.2862 46.3472L23.2742 46.3341C23.4439 46.1789 24.4116 45.2429 25.2511 43.8132C25.6352 43.1589 25.9815 42.4206 26.2175 41.6203C26.1922 41.5209 26.1682 41.4206 26.1457 41.3194C25.5022 41.9183 24.8112 42.3895 24.1485 42.7575C22.6147 43.6094 21.1475 43.9525 20.6933 44.0587L20.6932 44.0587C20.6414 44.0708 20.6027 44.0799 20.5787 44.0862L20.5756 44.0746C19.8297 44.2757 19.0672 44.4349 18.2917 44.5515Z" fill="url(#paint0_linear)"/>
<path fill-rule="evenodd" clip-rule="evenodd" d="M49.8756 39.5535C46.9844 41.5686 43.3835 42.6643 39.5818 42.6643C37.9079 42.6643 36.2744 42.4557 34.7241 42.0437L34.7347 42.0037C34.6992 41.9943 34.6516 41.9827 34.5932 41.9684L34.5931 41.9684C34.1072 41.8497 32.8676 41.5469 31.5505 40.8177C30.0806 40.004 28.6373 38.7246 28.0777 36.7009L25.9567 37.2874C26.7296 40.0825 28.7146 41.7631 30.4847 42.743C32.0835 43.6281 33.6077 43.9948 34.0655 44.105L34.0655 44.105C34.1129 44.1164 34.1489 44.1251 34.1723 44.1312L34.1821 44.0944C35.91 44.5521 37.7251 44.7879 39.5818 44.7879C44.4662 44.7879 49.0639 43.1633 52.5255 40.1902L53.4705 39.3832L52.5255 38.5763C51.4791 37.6875 50.3392 36.926 49.1323 36.2938C49.0076 36.2198 48.8799 36.1467 48.7488 36.0747C47.0706 35.1534 44.8954 34.4337 41.5725 33.9414L41.25 36.1183C44.4052 36.5857 46.3088 37.2456 47.6897 38.0038C48.5348 38.4677 49.2043 38.9769 49.8756 39.5535Z" fill="url(#paint1_linear)"/>
<path d="M35.8867 22.2771C36.9086 9.81149 28.7469 2.42048 27.0842 0C26.6766 0.593816 17.3315 8.55304 18.271 22.1709C9.98539 15.9712 1.01165 16.2793 0.623535 16.2035C0.750101 16.6927 -0.0337852 25.4264 8.91635 33.2033C16.2361 39.5589 26.4968 42.531 37.129 38.3425C40.2189 37.1214 43.0753 35.4119 45.5706 33.2564C54.6687 25.3674 53.6411 16.9228 53.8209 16.214C53.2028 16.3336 44.375 15.8321 35.8867 22.2771ZM24.6526 38.0664C19.3223 37.3126 14.2998 35.0614 10.3074 31.5999C6.08137 27.9261 3.47979 23.3071 2.90648 18.4652C14.3216 19.5303 24.6718 27.7073 25.9693 38.2152C25.5233 38.1726 25.088 38.1195 24.6526 38.0664ZM27.201 34.0846C25.9692 30.3469 23.6545 26.9279 20.607 24.1141C20.4265 22.8717 20.331 21.6081 20.331 20.3233C20.331 13.8568 22.7201 7.76206 27.0842 3.03691C32.5037 8.90481 34.7065 16.7036 33.5295 24.2627C30.5882 27.066 28.3796 30.4213 27.201 34.0846ZM28.4539 38.215C29.6691 27.3895 40.448 19.4346 51.5485 18.465C50.3158 29.3244 39.6547 37.1651 28.4539 38.215Z" fill="url(#paint2_linear)"/>
<defs>
<linearGradient id="paint0_linear" x1="4.2792" y1="38.842" x2="42.2998" y2="47.4958" gradientUnits="userSpaceOnUse">
<stop stop-color="#21C279"/>
<stop offset="1" stop-color="#2FE692"/>
</linearGradient>
<linearGradient id="paint1_linear" x1="11.2861" y1="26.1995" x2="50.2562" y2="45.6836" gradientUnits="userSpaceOnUse">
<stop offset="0.0783095" stop-color="#21C279"/>
<stop offset="1" stop-color="#2FE692"/>
</linearGradient>
<linearGradient id="paint2_linear" x1="13.2661" y1="17.3645" x2="48.6045" y2="49.1995" gradientUnits="userSpaceOnUse">
<stop stop-color="#21C279"/>
<stop offset="1" stop-color="#2FE692"/>
</linearGradient>
</defs>
</svg>
