<svg width="74" height="61" viewBox="0 0 74 61" fill="none" xmlns="http://www.w3.org/2000/svg">
<path d="M0.500035 2.46986H0.500042L0.500028 2.46719C0.497418 1.97926 0.676281 1.50778 1.00188 1.14435C1.32455 0.78417 1.76852 0.555604 2.24886 0.502031C2.31277 0.499125 2.37678 0.499337 2.44066 0.502669L2.45367 0.503347H2.4667L32.8889 0.503397L32.896 0.503297C33.1566 0.499612 33.4154 0.547733 33.6572 0.644897C33.899 0.742064 34.1191 0.886359 34.3047 1.06936L34.655 0.714093L34.3047 1.06936C34.4903 1.25235 34.6377 1.47037 34.7383 1.7108C34.8389 1.95122 34.8907 2.20924 34.8907 2.46986C34.8907 2.73048 34.8389 2.98851 34.7383 3.22893C34.6377 3.46935 34.4903 3.68738 34.3047 3.87036L34.6558 4.22642L34.3047 3.87037C34.1192 4.05333 33.899 4.19759 33.6572 4.29478C33.4153 4.39196 33.1566 4.44011 32.896 4.43643V4.43638H32.8889H4.93337H4.43337V4.93638V40.3927V41.2012L5.15668 40.8401L21.3185 32.7725L21.3193 32.7721C21.5552 32.6538 21.8124 32.5841 22.0757 32.5673C22.3703 32.5513 22.6647 32.6018 22.9371 32.715C23.2103 32.8285 23.4543 33.0022 23.651 33.223L23.6524 33.2246L31.8232 42.3198L32.0779 42.6033L32.4188 42.4329L53.3854 31.9501L53.3868 31.9494C53.6167 31.8336 53.8671 31.7641 54.1238 31.7447C54.4209 31.7226 54.7191 31.7684 54.9959 31.8784C55.2727 31.9884 55.5209 32.1598 55.7218 32.3797L68.6975 46.588L69.5667 47.5398V46.2508V4.93638V4.43638H69.0667L41.1111 4.43633L41.1041 4.43643C40.8434 4.44011 40.5847 4.39196 40.3428 4.29478C40.101 4.19759 39.8809 4.05333 39.6953 3.87037C39.5097 3.68738 39.3623 3.46935 39.2617 3.22893C39.1611 2.9885 39.1093 2.73048 39.1093 2.46986C39.1093 2.20925 39.1611 1.95122 39.2617 1.7108C39.3623 1.47037 39.5097 1.25234 39.6953 1.06936C39.8809 0.886359 40.101 0.742064 40.3428 0.644897C40.5846 0.547734 40.8434 0.499612 41.1041 0.503297V0.503347H41.1111H71.5333C72.0549 0.5034 72.5551 0.710617 72.9239 1.07942C73.2927 1.44822 73.5 1.94837 73.5 2.46986V58.3778C73.5 58.8993 73.2928 59.3995 72.9239 59.7683C72.5551 60.1371 72.0549 60.3443 71.5333 60.3444H2.46675C1.94516 60.3443 1.44494 60.1371 1.07611 59.7683L0.722558 60.1218L1.0761 59.7683C0.707281 59.3995 0.500076 58.8993 0.500035 58.3778V2.46986ZM54.0709 36.4075L53.8162 36.1281L53.4781 36.297L35.3635 45.341L34.7762 45.6342L35.2149 46.1225L44.3107 56.2456L44.4597 56.4114H44.6827H69.0667H69.5667V55.9114V53.599V53.4053L69.4362 53.2621L54.0709 36.4075ZM21.9811 37.2325L21.7266 36.949L21.3857 37.1191L4.71004 45.4437L4.43337 45.5819V45.8911V55.9114V56.4114H4.93337H38.0792H39.2L38.4512 55.5773L21.9811 37.2325ZM26.8111 22.2021C26.8111 17.5126 30.6658 13.6581 35.3556 13.6581C40.0454 13.6581 43.9 17.5126 43.9 22.2021C43.9 26.8915 40.0453 30.7461 35.3556 30.7461C30.6658 30.7461 26.8111 26.8915 26.8111 22.2021ZM39.9667 22.2021C39.9667 19.6263 37.9314 17.5912 35.3556 17.5912C32.7797 17.5912 30.7445 19.6263 30.7445 22.2021C30.7445 24.7778 32.7797 26.813 35.3556 26.813C37.9314 26.813 39.9667 24.7778 39.9667 22.2021Z" fill="#5ECE84" stroke="#DBF1E2"/>
</svg>
