<svg width="64" height="65" viewBox="0 0 64 65" fill="none" xmlns="http://www.w3.org/2000/svg">
<path d="M40.568 27.7624H40.0082V22.6542C40.0082 18.5957 36.7194 15.3069 32.5909 15.3069H31.4013C27.3428 15.3069 24.0539 18.5957 23.984 22.6542V27.7624H23.4242C20.9751 27.7624 18.9458 29.7916 18.9458 32.2407V42.3171C18.9458 44.7662 20.9751 46.7955 23.4242 46.7955H40.428C42.8771 46.7955 44.9064 44.7662 44.9064 42.3171V32.3107C45.0463 29.7916 43.0171 27.7624 40.568 27.7624ZM27.5527 22.7242C27.5527 20.555 29.302 18.8756 31.4013 18.8756H32.5909C34.7601 18.8756 36.4395 20.625 36.4395 22.7242V27.8323H27.5527V22.7242ZM41.5476 42.3871C41.5476 42.9469 41.1278 43.3667 40.568 43.3667H23.4942C22.9344 43.3667 22.5145 42.9469 22.5145 42.3871V32.3107C22.5145 31.7509 22.9344 31.3311 23.4942 31.3311H40.498C41.0578 31.3311 41.4776 31.7509 41.4776 32.3107L41.5476 42.3871Z" fill="#5ECE84"/>
<path d="M32.031 35.5996C31.0513 35.5996 30.2816 36.3693 30.2816 37.349C30.2816 38.3286 31.0513 39.0983 32.031 39.0983C33.0106 39.0983 33.7803 38.3286 33.7803 37.349C33.7803 36.3693 33.0106 35.5996 32.031 35.5996Z" fill="#5ECE84"/>
<path d="M57.9215 9.42915C58.9011 9.42915 59.6708 8.65943 59.6708 7.67979C59.6708 6.70014 58.9011 5.93042 57.9215 5.93042H50.4342C49.4545 5.93042 48.6848 6.70014 48.6848 7.67979V15.1671C48.6848 16.1467 49.4545 16.9164 50.4342 16.9164C51.4138 16.9164 52.1836 16.1467 52.1836 15.1671V11.9482C55.6823 15.447 58.2713 19.8554 59.5309 24.6836C60.7904 29.5119 60.7904 34.62 59.5309 39.4483C58.2713 44.2765 55.6823 48.6849 52.1836 52.1837C48.6848 55.6824 44.2064 58.2715 39.4482 59.531C34.6199 60.7905 29.5118 60.7905 24.6835 59.531C23.7739 59.2511 22.7942 59.8109 22.5143 60.7905C22.2344 61.7002 22.7942 62.6799 23.7739 62.9597C26.5029 63.6595 29.2319 64.0793 32.0309 64.0793C34.8298 64.0793 37.6288 63.7295 40.2879 62.9597C45.6759 61.4903 50.6441 58.6213 54.6327 54.7027C58.6212 50.7142 61.4902 45.746 62.8897 40.3579C64.3591 34.9699 64.3591 29.232 62.8897 23.774C61.4202 18.3859 58.5512 13.4177 54.6327 9.42915H57.9215Z" fill="#5ECE84"/>
<path d="M11.8782 11.8782C15.3769 8.37946 19.8553 5.7904 24.6136 4.53086C29.4418 3.27131 34.55 3.27131 39.3782 4.53086C40.2879 4.81076 41.2675 4.25096 41.5474 3.27131C41.8273 2.36164 41.2675 1.382 40.2879 1.1021C34.8999 -0.367367 29.1619 -0.367367 23.7039 1.1021C18.3159 2.57157 13.3477 5.44053 9.42908 9.42908C5.44053 13.3477 2.57157 18.3159 1.1021 23.7739C-0.367367 29.1619 -0.367367 34.8999 1.1021 40.3579C2.57157 45.7459 5.44053 50.7141 9.35911 54.7027H6.14027C5.16063 54.7027 4.39091 55.4724 4.39091 56.452C4.39091 57.4317 5.16063 58.2014 6.14027 58.2014H13.6276C14.6072 58.2014 15.3769 57.4317 15.3769 56.452V48.9648C15.3769 47.9851 14.6072 47.2154 13.6276 47.2154C12.6479 47.2154 11.8782 47.9851 11.8782 48.9648V52.1836C8.37946 48.6849 5.7904 44.2765 4.53086 39.4482C3.27131 34.62 3.27131 29.5118 4.53086 24.6836C5.7904 19.8553 8.37946 15.4469 11.8782 11.8782Z" fill="#5ECE84"/>
<rect x="19" y="28" width="26" height="18" rx="4" fill="#5ECE84" fill-opacity="0.2"/>
</svg>
