<svg width="98" height="101" viewBox="0 0 98 101" fill="none" xmlns="http://www.w3.org/2000/svg">
<rect x="70.4412" y="66.3457" width="25.3915" height="9.82895" rx="4.91448" fill="#CAE0D1"/>
<ellipse cx="31.1246" cy="70.0314" rx="28.6678" ry="29.0773" fill="#CAE0D1"/>
<circle cx="30.2469" cy="70.4998" r="9.67901" fill="#FAFAFA"/>
<path d="M34.3547 68.7662H32.1794V66.5909C32.1794 65.8252 31.5165 65.1623 30.7508 65.1623C29.9851 65.1623 29.3222 65.8252 29.3222 66.5909V68.7662H27.1468C26.3811 68.7662 25.7182 69.4291 25.7182 70.1949C25.7182 70.9606 26.3811 71.6235 27.1468 71.6235H29.3222V73.7988C29.3222 74.5645 29.9851 75.2274 30.7508 75.2274C31.5165 75.2274 32.1794 74.5645 32.1794 73.7988V71.6235H34.3547C35.1204 71.6235 35.7833 70.9606 35.7833 70.1949C35.7833 69.4291 35.1204 68.7662 34.3547 68.7662Z" fill="#5ECE84" stroke="#5ECE84" stroke-width="0.4"/>
<path d="M47.132 0C41.0709 0 36.1577 4.91479 36.1577 10.976V13.8428C31.8984 18.2658 29.605 24.0812 29.605 30.2243V35.7931C29.5231 36.4484 30.0133 37.0217 30.7505 37.0217C31.4057 37.0217 31.9791 36.4484 31.9791 35.7931V30.2243C31.9791 24.7365 34.0277 19.576 37.8774 15.5625H38.1222C44.1834 15.5625 49.0981 10.6477 49.0981 4.58652V1.22862C49.0981 0.573355 48.5248 0 47.8695 0H47.132ZM46.5593 2.45724V4.58652C46.5593 9.17337 42.9547 12.8595 38.5317 13.1053V10.976C38.5317 6.38914 42.1363 2.70296 46.5593 2.45724ZM27.4741 5.81514C25.0169 5.81514 22.9692 7.86284 22.9692 10.3201C22.9692 12.7773 25.0169 14.825 27.4741 14.825C29.9314 14.825 31.9791 12.7773 31.9791 10.3201C31.9791 7.86284 29.9314 5.81514 27.4741 5.81514ZM27.3926 8.27238C28.5393 8.27238 29.4402 9.17337 29.4402 10.3201C29.4402 11.4668 28.5393 12.3678 27.3926 12.3678C26.2458 12.3678 25.3449 11.4668 25.3449 10.3201C25.3449 9.17337 26.2458 8.27238 27.3926 8.27238ZM5.76854 11.3855C5.11328 11.3855 4.53992 11.9589 4.53992 12.6141V18.5109C4.53992 28.5855 12.731 36.8586 22.8876 36.8586H24.1978C24.8531 36.8586 25.4264 36.2852 25.4264 35.6299V29.7332C25.3445 19.5766 17.155 11.3855 7.08035 11.3855H5.76854ZM6.91557 13.8428H6.99716C15.7613 13.8428 22.8876 20.9691 22.8876 29.7332V34.4013C14.0416 34.4013 6.91557 27.275 6.91557 18.5109V13.8428ZM61.7939 18.5925C50.2449 18.5925 40.007 26.375 37.0583 37.5145C36.8945 38.1697 37.3037 38.824 37.959 38.9878C38.6143 39.1517 39.2702 38.7424 39.434 38.0872C42.1369 28.0125 51.3912 20.9681 61.8755 20.9681H62.4498V28.2582C62.3679 34.9747 59.4189 41.3638 54.3406 45.7868C53.8491 46.1964 53.7675 47.0151 54.259 47.5066C54.5047 47.7523 54.832 47.9161 55.1597 47.9161C55.4054 47.9161 55.733 47.8339 55.9787 47.5882C61.5485 42.6737 64.8254 35.6303 64.8254 28.1766V19.8211C64.8254 19.1658 64.2521 18.5925 63.5968 18.5925H61.7939ZM40.2531 19.2484C38.6968 19.2484 37.3863 20.5589 37.3863 22.1151C37.3863 23.6714 38.6968 24.9819 40.2531 24.9819C41.8093 24.9819 43.1198 23.6714 43.1198 22.1151C43.1198 20.5589 41.8093 19.2484 40.2531 19.2484ZM40.2531 21.7056C40.4988 21.7056 40.6626 21.8694 40.6626 22.1151C40.6626 22.3609 40.4988 22.5247 40.2531 22.5247C40.0073 22.5247 39.8435 22.3609 39.8435 22.1151C39.8435 21.8694 40.0073 21.7056 40.2531 21.7056ZM30.7505 39.1526C22.7235 39.1526 15.1064 42.1832 9.37281 47.753C-2.83147 59.6296 -3.15942 79.123 8.63532 91.3273C14.4508 97.3885 22.3958 100.747 30.7505 100.747C38.7774 100.747 46.3961 97.7161 52.1297 92.1464C57.9452 86.5767 61.0564 79.2046 61.4659 71.751H68.2649C68.5926 74.6178 70.9682 76.8299 73.9169 76.9118L92.0998 77.1566H92.1814C95.2939 77.1566 97.9162 74.6175 97.9981 71.4231V70.7688C98.08 67.5743 95.459 64.9523 92.2646 64.8704L74.1616 64.5441H74.0801C71.2952 64.5441 68.9199 66.5911 68.3465 69.2122H61.4659C61.3021 61.7586 58.4353 54.3056 52.8656 48.572C47.0501 42.5108 39.1051 39.1526 30.7505 39.1526ZM30.7505 41.6099C38.5317 41.6099 45.7399 44.722 51.1458 50.2918C62.0396 61.5132 61.7129 79.4513 50.4915 90.3451C45.1675 95.5053 38.2054 98.2895 30.8336 98.2895C23.0524 98.2895 15.8442 95.1773 10.4383 89.6076C-0.455498 78.3862 -0.128826 60.448 11.0926 49.5543C16.4166 44.3941 23.3787 41.6099 30.7505 41.6099ZM30.7505 44.0671C24.034 44.0671 17.6465 46.605 12.8139 51.3556C7.81752 56.1882 5.03137 62.578 4.94946 69.5401C4.86756 76.4204 7.40702 82.973 12.2396 87.9694C17.1541 93.0477 23.7896 95.8323 30.8336 95.8323C37.5501 95.8323 43.9376 93.2928 48.7702 88.5421C53.7666 83.7096 56.5527 77.3214 56.6346 70.3592C56.7165 63.479 54.1771 56.9263 49.3445 51.9299C44.5119 46.9336 37.8764 44.0671 30.7505 44.0671ZM30.7505 46.6059C37.1393 46.6059 43.1198 49.1444 47.6248 53.7313C51.9659 58.2362 54.2593 64.1342 54.1774 70.3592C54.0955 76.5842 51.5554 82.4813 47.0504 86.8224C42.6274 91.0816 36.8948 93.375 30.8336 93.375C24.4448 93.375 18.4643 90.8365 13.9593 86.2497C9.61822 81.7447 7.32479 75.8467 7.4067 69.6217C7.48861 63.3967 10.0287 57.4997 14.5337 53.1586C18.9567 48.8993 24.6893 46.6059 30.7505 46.6059ZM30.7505 49.1447C30.0952 49.1447 29.5218 49.7181 29.5218 50.3734V59.2201C23.9521 59.7934 19.6929 64.5428 19.6929 70.1944C19.6929 76.3375 24.6893 81.252 30.7505 81.252C36.8116 81.252 41.808 76.2556 41.808 70.1944C41.808 64.5428 37.4669 59.7934 31.9791 59.2201V50.3734C31.9791 49.7181 31.4057 49.1447 30.7505 49.1447ZM30.7505 61.5941C35.5011 61.5941 39.3508 65.4438 39.3508 70.1944C39.3508 74.9451 35.5011 78.7948 30.7505 78.7948C25.9998 78.7948 22.1501 74.9451 22.1501 70.1944C22.1501 65.4438 25.9998 61.5941 30.7505 61.5941ZM74.1616 67.0829L92.2646 67.4109C94.1485 67.4109 95.6228 68.9665 95.5409 70.8503V71.5062C95.5409 73.3082 93.9834 74.7826 92.1814 74.7826V76.0112L92.0998 74.7826L73.9985 74.4546C72.1965 74.3727 70.7222 72.8155 70.7222 71.0135V70.3592C70.7222 68.5572 72.2778 67.0829 74.1616 67.0829Z" fill="#5ECE84"/>
</svg>
