<svg width="21" height="24" viewBox="0 0 21 24" fill="none" xmlns="http://www.w3.org/2000/svg">
<path d="M15.75 3H19.875C20.1562 3 20.4375 3.14062 20.6719 3.32812C20.8594 3.5625 21 3.84375 21 4.125V4.21875C21 4.3125 20.9531 4.35938 20.9062 4.40625C20.8125 4.5 20.7656 4.5 20.7188 4.5H19.5V21.75C19.5 22.4062 19.2656 22.9219 18.8438 23.3438C18.375 23.8125 17.8594 24 17.25 24H3.75C3.09375 24 2.57812 23.8125 2.15625 23.3438C1.6875 22.9219 1.5 22.4062 1.5 21.75V4.5H0.28125C0.1875 4.5 0.140625 4.5 0.09375 4.40625C0 4.35938 0 4.3125 0 4.21875V4.125C0 3.84375 0.09375 3.5625 0.328125 3.32812C0.515625 3.14062 0.796875 3 1.125 3H5.25L6.84375 0.890625C7.26562 0.328125 7.875 0 8.625 0H12.375C13.125 0 13.6875 0.328125 14.1562 0.890625L15.75 3ZM8.625 1.5C8.34375 1.5 8.15625 1.59375 8.01562 1.78125L7.125 3H13.875L12.9844 1.78125C12.7969 1.59375 12.6094 1.5 12.375 1.5H8.625ZM18 21.75V4.5H3V21.75C3 21.9844 3.04688 22.1719 3.1875 22.3125C3.32812 22.4531 3.51562 22.5 3.75 22.5H17.25C17.4375 22.5 17.625 22.4531 17.7656 22.3125C17.9062 22.1719 18 21.9844 18 21.75ZM9.75 19.6875C9.75 19.875 9.79688 20.0156 9.89062 20.1094C9.98438 20.2031 10.125 20.25 10.3125 20.25H10.6875C10.8281 20.25 10.9688 20.2031 11.0625 20.1094C11.1562 20.0156 11.25 19.875 11.25 19.6875V7.3125C11.25 7.17188 11.1562 7.03125 11.0625 6.9375C10.9688 6.84375 10.8281 6.75 10.6875 6.75H10.3125C10.125 6.75 9.98438 6.84375 9.89062 6.9375C9.79688 7.03125 9.75 7.17188 9.75 7.3125V19.6875ZM6 19.6875C6 19.875 6.04688 20.0156 6.14062 20.1094C6.23438 20.2031 6.375 20.25 6.5625 20.25H6.9375C7.07812 20.25 7.21875 20.2031 7.3125 20.1094C7.40625 20.0156 7.5 19.875 7.5 19.6875V7.3125C7.5 7.17188 7.40625 7.03125 7.3125 6.9375C7.21875 6.84375 7.07812 6.75 6.9375 6.75H6.5625C6.375 6.75 6.23438 6.84375 6.14062 6.9375C6.04688 7.03125 6 7.17188 6 7.3125V19.6875ZM13.5 19.6875C13.5 19.875 13.5469 20.0156 13.6406 20.1094C13.7344 20.2031 13.875 20.25 14.0625 20.25H14.4375C14.5781 20.25 14.7188 20.2031 14.8125 20.1094C14.9062 20.0156 15 19.875 15 19.6875V7.3125C15 7.17188 14.9062 7.03125 14.8125 6.9375C14.7188 6.84375 14.5781 6.75 14.4375 6.75H14.0625C13.875 6.75 13.7344 6.84375 13.6406 6.9375C13.5469 7.03125 13.5 7.17188 13.5 7.3125V19.6875Z" fill="white"/>
</svg>
