<svg width="24" height="22" viewBox="0 0 24 22" fill="none" xmlns="http://www.w3.org/2000/svg">
<path d="M15.1875 2H9.04688C8.85938 2 8.71875 2.04688 8.625 2.14062C8.48438 2.23438 8.39062 2.375 8.34375 2.46875L7.40625 5H2.25C2.01562 5 1.82812 5.09375 1.6875 5.23438C1.54688 5.375 1.5 5.5625 1.5 5.75V19.25C1.5 19.4844 1.54688 19.6719 1.6875 19.8125C1.82812 19.9531 2.01562 20 2.25 20H21.75C21.9375 20 22.125 19.9531 22.2656 19.8125C22.4062 19.6719 22.5 19.4844 22.5 19.25V5.75C22.5 5.5625 22.4062 5.375 22.2656 5.23438C22.125 5.09375 21.9375 5 21.75 5H16.5938L15.5625 2.23438C15.4688 2.09375 15.375 2 15.1875 2ZM15.1875 0.5C15.5625 0.5 15.9375 0.640625 16.2656 0.828125C16.5469 1.0625 16.7812 1.34375 16.9688 1.71875L17.625 3.5H21.75C22.3594 3.5 22.875 3.73438 23.3438 4.15625C23.7656 4.625 24 5.14062 24 5.75V19.25C24 19.9062 23.7656 20.4219 23.3438 20.8438C22.875 21.3125 22.3594 21.5 21.75 21.5H2.25C1.59375 21.5 1.07812 21.3125 0.65625 20.8438C0.1875 20.4219 0 19.9062 0 19.25V5.75C0 5.14062 0.1875 4.625 0.65625 4.15625C1.07812 3.73438 1.59375 3.5 2.25 3.5H6.375L6.9375 1.95312C7.125 1.53125 7.40625 1.20312 7.78125 0.921875C8.15625 0.640625 8.57812 0.5 9.04688 0.5H15.1875ZM12 18.125C13.0312 18.125 13.9688 17.8906 14.8125 17.375C15.6562 16.9062 16.3594 16.2031 16.875 15.3594C17.3438 14.5156 17.625 13.5312 17.625 12.5C17.625 11.4688 17.3438 10.5312 16.875 9.6875C16.3594 8.84375 15.6562 8.14062 14.8125 7.625C13.9688 7.15625 13.0312 6.875 12 6.875C10.9688 6.875 9.98438 7.15625 9.14062 7.625C8.29688 8.14062 7.59375 8.84375 7.125 9.6875C6.60938 10.5312 6.375 11.4688 6.375 12.5C6.375 13.5312 6.60938 14.5156 7.125 15.3594C7.59375 16.2031 8.29688 16.9062 9.14062 17.375C9.98438 17.8906 10.9688 18.125 12 18.125ZM12 8.375C13.125 8.375 14.0625 8.79688 14.9062 9.59375C15.7031 10.4375 16.125 11.375 16.125 12.5C16.125 13.625 15.7031 14.6094 14.9062 15.4062C14.0625 16.25 13.125 16.625 12 16.625C10.875 16.625 9.89062 16.25 9.09375 15.4062C8.25 14.6094 7.875 13.625 7.875 12.5C7.875 11.375 8.25 10.4375 9.09375 9.59375C9.89062 8.79688 10.875 8.375 12 8.375Z" fill="#5ECE84"/>
</svg>
