<svg width="160" height="199" viewBox="0 0 160 199" fill="none" xmlns="http://www.w3.org/2000/svg">
<circle cx="80" cy="101" r="80" fill="#E7F5EC"/>
<path d="M79.4149 59.9999C83.2257 59.9999 86.3149 56.9107 86.3149 53.1C86.3149 49.2892 83.2257 46.2 79.4149 46.2C75.6041 46.2 72.5149 49.2892 72.5149 53.1C72.5149 56.9107 75.6041 59.9999 79.4149 59.9999Z" fill="#5ECE84"/>
<path d="M96.8149 46.0501C95.7649 46.0501 94.7149 45.6001 93.8149 44.8501C89.9149 40.9501 84.8149 38.8501 79.4149 38.8501C74.1649 38.8501 69.0649 40.8001 65.3149 44.5501C63.6649 46.2001 60.9649 46.0501 59.4649 44.4001C57.8149 42.7501 57.9649 40.0501 59.6149 38.5501C65.0149 33.4501 72.0649 30.6001 79.5649 30.6001C87.2149 30.6001 94.4149 33.6001 99.9649 39.0001C101.615 40.6501 101.615 43.3501 99.9649 44.8501C99.0649 45.7501 98.0149 46.0501 96.8149 46.0501Z" fill="#5ECE84"/>
<path d="M107.315 35.4C106.115 35.4 105.065 34.95 104.165 34.05C97.8651 27 88.8651 23.1 79.4151 23.1C70.1151 23.1 61.2651 27 54.9651 33.9C53.4651 35.55 50.7651 35.7 49.1151 34.2C47.4651 32.7 47.3151 30 48.8151 28.35C56.6151 19.8 67.8651 14.85 79.4151 14.85C91.2651 14.85 102.515 19.95 110.315 28.65C111.815 30.3 111.665 33 110.015 34.5C109.415 35.1 108.365 35.4 107.315 35.4Z" fill="#5ECE84"/>
<path d="M118.115 24.15C117.065 24.15 116.015 23.7 115.115 22.95C105.515 13.5 92.915 8.4 79.415 8.4C66.065 8.4 53.465 13.5 44.0151 22.8C42.3651 24.45 39.6651 24.3 38.1651 22.65C36.5151 21 36.6651 18.3 38.3151 16.8C49.415 6 63.965 0 79.565 0C95.165 0 110.015 6 121.115 16.95C122.765 18.6 122.765 21.15 121.115 22.8C120.365 23.7 119.165 24.15 118.115 24.15Z" fill="#5ECE84"/>
<path d="M113.211 191.317L113.208 191.32C112.37 192.252 111.006 192.9 109.457 192.9H49.1156C46.3407 192.9 44.4016 190.972 44.4016 189.001V78.0163C44.4016 76.5923 45.3722 75.2305 46.9737 74.5597C47.6353 74.2902 48.3392 74.1362 49.0933 74.1362H109.413C112.188 74.1362 114.127 76.0641 114.127 78.0356V189.001V189.381C114.044 190.083 113.73 190.744 113.211 191.317ZM109.435 69.7H51.9103H49.1156C44.1103 69.7 39.7 73.2614 39.7 78.0163V189.001C39.7 193.756 44.1103 197.317 49.1156 197.317H109.435C114.44 197.317 118.851 193.756 118.851 189.001V188.981V78.0163C118.851 73.2614 114.44 69.7 109.435 69.7Z" fill="#5ECE84" stroke="#5ECE84" stroke-width="2.6"/>
<path d="M102.938 84.8746V165.159H55.0431V84.8746H55.2637H102.938ZM105.128 80.717H55.2637H52.8716C51.8129 80.717 50.7 81.5133 50.7 82.7958V167.238C50.7 168.521 51.8129 169.317 52.8716 169.317H105.128C106.187 169.317 107.3 168.521 107.3 167.238V165.531V82.7958C107.3 81.5133 106.187 80.717 105.128 80.717Z" fill="#5ECE84" stroke="#5ECE84" stroke-width="2.6"/>
<rect x="70" y="177.017" width="19" height="7" rx="3.5" fill="#5ECE84"/>
</svg>
