<svg width="25" height="23" viewBox="0 0 25 23" fill="none" xmlns="http://www.w3.org/2000/svg">
<path d="M19.5336 16.9667L19.4519 16.913L19.3963 16.9935C17.655 19.52 14.7522 21.1739 11.4657 21.1739C6.14006 21.1739 1.82177 16.8305 1.82177 11.4714C1.82177 6.11235 6.14006 1.76898 11.4657 1.76898C14.2694 1.76898 16.7937 2.97258 18.556 4.89472L18.6182 4.96252L18.6909 4.90622L19.2652 4.46185L19.3506 4.39573L19.2781 4.31564C17.3459 2.18216 14.5612 0.842871 11.4657 0.842871C5.62985 0.842871 0.9 5.60201 0.9 11.4714C0.9 17.3409 5.62985 22.1 11.4657 22.1C15.074 22.1 18.2595 20.2804 20.1655 17.5044L20.2232 17.4203L20.138 17.3643L19.5336 16.9667Z" fill="#5ECE84" stroke="#5ECE84" stroke-width="0.2"/>
<path fill-rule="evenodd" clip-rule="evenodd" d="M22.2698 11.337H12.1868V10.2892H22.2698L20.4365 8.19371L21.2815 7.52295L24.0314 10.6662V10.8131V10.96L21.2815 14.1033L20.4365 13.4325L22.2698 11.337Z" fill="#5ECE84"/>
</svg>
