<svg width="26" height="26" viewBox="0 0 26 26" fill="none" xmlns="http://www.w3.org/2000/svg">
<path d="M12.9233 6.10758C11.0166 6.10758 9.42197 7.66758 9.42197 9.60891V11.3076H7.7233V18.3796H18.054V11.3076H16.3553V9.60891C16.4246 7.66758 14.83 6.10758 12.9233 6.10758ZM10.6006 9.57425C10.6006 8.29158 11.6406 7.25158 12.9233 7.25158C14.206 7.25158 15.246 8.29158 15.246 9.57425V11.2729H10.566V9.57425H10.6006ZM16.9446 17.2356H8.90197V12.4516H16.9446V17.2356ZM1.82997 16.9236L0.755302 17.3049C-0.0420316 15.0516 -0.215363 12.6249 0.26997 10.2676C0.78997 7.84092 1.96864 5.65691 3.6673 3.88891C8.62464 -1.17242 16.7713 -1.31109 21.8673 3.57691V2.36358H23.0113L23.046 5.51825L19.8913 5.55291V4.40891H21.07C16.4246 -0.0284206 9.00597 0.0755804 4.4993 4.68625C1.30997 7.94491 0.26997 12.6249 1.82997 16.9236ZM25.0913 8.56891C25.8886 10.8222 26.062 13.2489 25.5766 15.6063C25.0566 18.0329 23.878 20.2169 22.1793 21.9849C19.6486 24.5849 16.286 25.8676 12.9233 25.8676C9.6993 25.8676 6.4753 24.6889 3.9793 22.2969V23.5102H2.8353L2.80064 20.3556L5.9553 20.3209V21.4649H4.77664C9.42197 25.9023 16.8406 25.7982 21.3473 21.1876C24.5366 17.9289 25.542 13.2489 24.0166 8.95025L25.0913 8.56891Z" fill="#5ECE84"/>
</svg>
