<svg width="21" height="26" viewBox="0 0 21 26" fill="none" xmlns="http://www.w3.org/2000/svg">
<path d="M7.03551 0.000649544C6.93611 0.0103384 6.84079 0.0450646 6.75844 0.101581C6.6761 0.158097 6.60942 0.234566 6.56463 0.323839C6.45553 0.542056 6.3549 0.809925 6.20454 1.15488C6.05419 1.49983 5.86574 1.89575 5.6321 2.26294C5.16482 2.99731 4.59361 3.54643 3.84091 3.54643H0.590909C0.434195 3.54644 0.283905 3.6087 0.173091 3.71953C0.0622776 3.83035 1.60201e-05 3.98066 0 4.13739V13.0018C0 16.8741 1.79563 19.84 3.94247 21.9494C6.08932 24.0588 8.58185 25.3418 10.1193 25.9569C10.2615 26.0144 10.4204 26.0144 10.5625 25.9569C12.1 25.3418 14.5925 24.0588 16.7393 21.9494C18.8862 19.84 20.6818 16.8741 20.6818 13.0018V4.13739C20.6818 3.98066 20.6195 3.83035 20.5087 3.71953C20.3979 3.6087 20.2476 3.54644 20.0909 3.54643H16.8409C16.0882 3.54643 15.517 2.99731 15.0497 2.26294C14.8161 1.89575 14.6276 1.49983 14.4773 1.15488C14.3269 0.809925 14.2263 0.542056 14.1172 0.323839C14.0678 0.226674 13.9925 0.145056 13.8996 0.08802C13.8067 0.0309841 13.6999 0.000745815 13.5909 0.000649544H10.3409H7.09091C7.07245 -0.000216515 7.05397 -0.000216515 7.03551 0.000649544ZM7.47869 1.18258H10.3409H13.2031C13.2628 1.32669 13.2943 1.41134 13.3878 1.62579C13.5514 2.00108 13.7691 2.45468 14.0526 2.90007C14.6194 3.79085 15.5254 4.72836 16.8409 4.72835H19.5V13.0018C19.5 16.5114 17.8979 19.1543 15.9084 21.1091C14.001 22.9833 11.7736 24.1511 10.3409 24.7473C8.90819 24.1511 6.68086 22.9833 4.77344 21.1091C2.78392 19.1543 1.18182 16.5114 1.18182 13.0018V4.72835H3.84091C5.15638 4.72836 6.06245 3.79085 6.62926 2.90007C6.91266 2.45468 7.13046 2.00108 7.29403 1.62579C7.3875 1.41134 7.41898 1.32669 7.47869 1.18258ZM10.3409 8.56962C8.71616 8.56962 7.38636 9.89953 7.38636 11.5244C7.38636 12.3247 7.76341 12.9817 8.27273 13.4912V15.9567C8.27273 16.7649 8.94181 17.4341 9.75 17.4341H10.9318C11.74 17.4341 12.4091 16.7649 12.4091 15.9567V13.4912C12.9184 12.9817 13.2955 12.3247 13.2955 11.5244C13.2955 9.89953 11.9657 8.56962 10.3409 8.56962ZM10.3409 9.75155C11.327 9.75155 12.1136 10.5383 12.1136 11.5244C12.1136 12.0881 11.8798 12.4901 11.4489 12.8356C11.3797 12.8911 11.3238 12.9613 11.2855 13.0412C11.2471 13.1212 11.2272 13.2087 11.2273 13.2973V15.9567C11.2273 16.1306 11.1057 16.2521 10.9318 16.2521H9.75C9.5761 16.2521 9.45454 16.1306 9.45454 15.9567V13.2973C9.45459 13.2087 9.4347 13.1212 9.39634 13.0412C9.35799 12.9613 9.30215 12.8911 9.23295 12.8356C8.80202 12.4901 8.56818 12.0881 8.56818 11.5244C8.56818 10.5383 9.35486 9.75155 10.3409 9.75155Z" fill="#5ECE84"/>
</svg>
