<svg width="67" height="52" viewBox="0 0 67 52" fill="none" xmlns="http://www.w3.org/2000/svg">
<path d="M33.2647 0C29.1025 0 25.7045 3.39798 25.7045 7.56016V14.0572C25.7046 14.4582 25.8639 14.8427 26.1475 15.1263C26.431 15.4098 26.8156 15.5692 27.2166 15.5692H39.3128C39.7138 15.5692 40.0984 15.4098 40.382 15.1263C40.6655 14.8427 40.8248 14.4582 40.8249 14.0572V7.56016C40.8249 3.39798 37.4269 0 33.2647 0ZM33.2647 3.02406C35.8039 3.02406 37.8008 5.02101 37.8008 7.56016V12.5451H28.7286V7.56016C28.7286 5.02101 30.7256 3.02406 33.2647 3.02406ZM4.67785 6.04813C2.11265 6.04813 0 8.16079 0 10.726V46.7312C0 49.2964 2.11265 51.4091 4.67785 51.4091H61.8516C64.4168 51.4091 66.5294 49.2964 66.5294 46.7312V10.726C66.5294 8.16079 64.4168 6.04813 61.8516 6.04813H44.1797C43.9793 6.0453 43.7804 6.08232 43.5945 6.15703C43.4085 6.23175 43.2393 6.34267 43.0966 6.48336C42.9539 6.62404 42.8406 6.79169 42.7633 6.97654C42.686 7.1614 42.6461 7.35978 42.6461 7.56016C42.6461 7.76054 42.686 7.95892 42.7633 8.14378C42.8406 8.32863 42.9539 8.49628 43.0966 8.63696C43.2393 8.77765 43.4085 8.88857 43.5945 8.96329C43.7804 9.038 43.9793 9.07502 44.1797 9.07219H61.8516C62.8046 9.07219 63.5053 9.77297 63.5053 10.726V46.7312C63.5053 47.6843 62.8046 48.385 61.8516 48.385H4.67785C3.72485 48.385 3.02406 47.6843 3.02406 46.7312V10.726C3.02406 9.77297 3.72485 9.07219 4.67785 9.07219H22.3497C22.5501 9.07502 22.749 9.038 22.9349 8.96329C23.1209 8.88857 23.2901 8.77765 23.4328 8.63696C23.5755 8.49628 23.6888 8.32863 23.7661 8.14378C23.8434 7.95892 23.8833 7.76054 23.8833 7.56016C23.8833 7.35978 23.8434 7.1614 23.7661 6.97654C23.6888 6.79169 23.5755 6.62404 23.4328 6.48336C23.2901 6.34267 23.1209 6.23175 22.9349 6.15703C22.749 6.08232 22.5501 6.0453 22.3497 6.04813H4.67785ZM19.3257 17.0576C17.1076 17.0576 15.1172 18.2048 13.7737 19.9163C12.4301 21.6278 11.671 23.9069 11.671 26.3897C11.671 28.8761 12.3674 31.2176 13.7028 32.9812C9.11465 34.8873 6.04813 39.3001 6.04813 43.9434C6.0453 44.1438 6.08231 44.3427 6.15703 44.5287C6.23174 44.7146 6.34267 44.8838 6.48335 45.0265C6.62404 45.1692 6.79168 45.2825 6.97654 45.3598C7.1614 45.4372 7.35978 45.477 7.56016 45.477C7.76054 45.477 7.95893 45.4372 8.14378 45.3598C8.32864 45.2825 8.49628 45.1692 8.63697 45.0265C8.77765 44.8838 8.88858 44.7146 8.96329 44.5287C9.03801 44.3427 9.07503 44.1438 9.07219 43.9434C9.07219 40.0562 12.2775 35.9667 16.8686 35.1547C17.1765 35.1007 17.46 34.9525 17.6802 34.7307C17.9004 34.5089 18.0465 34.2242 18.0983 33.916C18.1501 33.6077 18.1051 33.291 17.9695 33.0094C17.8339 32.7277 17.6144 32.4951 17.3411 32.3433C15.8392 31.5054 14.6951 29.199 14.6951 26.3897C14.6951 24.5494 15.2771 22.9072 16.1598 21.7827C17.0426 20.6583 18.1503 20.0817 19.3257 20.0817C20.501 20.0817 21.5851 20.6583 22.4679 21.7827C23.3506 22.9072 23.9563 24.5494 23.9563 26.3897C23.9563 29.199 22.8121 31.5054 21.3102 32.3433C21.0369 32.4951 20.8174 32.7277 20.6818 33.0094C20.5462 33.291 20.5012 33.6077 20.553 33.916C20.6048 34.2242 20.7509 34.5089 20.9711 34.7307C21.1913 34.9525 21.4748 35.1007 21.7827 35.1547C26.3738 35.9667 29.5791 40.0562 29.5791 43.9434C29.5763 44.1438 29.6133 44.3427 29.688 44.5287C29.7627 44.7146 29.8737 44.8838 30.0144 45.0265C30.155 45.1692 30.3227 45.2825 30.5075 45.3598C30.6924 45.4372 30.8908 45.477 31.0912 45.477C31.2915 45.477 31.4899 45.4372 31.6748 45.3598C31.8596 45.2825 32.0273 45.1692 32.168 45.0265C32.3087 44.8838 32.4196 44.7146 32.4943 44.5287C32.569 44.3427 32.606 44.1438 32.6032 43.9434C32.6032 39.3001 29.5367 34.8873 24.9485 32.9812C26.28 31.2183 26.9803 28.8726 26.9803 26.3897C26.9803 23.9069 26.1976 21.6278 24.854 19.9163C23.5105 18.2048 21.5437 17.0576 19.3257 17.0576ZM38.4151 23.6964C38.2158 23.7047 38.0202 23.7524 37.8394 23.8365C37.6586 23.9207 37.4963 24.0398 37.3616 24.1869C37.227 24.334 37.1228 24.5063 37.055 24.6938C36.9871 24.8814 36.957 25.0804 36.9663 25.2796C36.9757 25.4788 37.0243 25.6742 37.1094 25.8546C37.1945 26.035 37.3143 26.1967 37.4621 26.3306C37.6099 26.4645 37.7827 26.5679 37.9706 26.6348C38.1584 26.7017 38.3577 26.7308 38.5568 26.7204H58.9692C59.1696 26.7233 59.3685 26.6863 59.5545 26.6115C59.7404 26.5368 59.9096 26.4259 60.0523 26.2852C60.195 26.1445 60.3083 25.9769 60.3856 25.792C60.463 25.6072 60.5028 25.4088 60.5028 25.2084C60.5028 25.008 60.463 24.8096 60.3856 24.6248C60.3083 24.4399 60.195 24.2723 60.0523 24.1316C59.9096 23.9909 59.7404 23.88 59.5545 23.8053C59.3685 23.7306 59.1696 23.6935 58.9692 23.6964H38.5568C38.5096 23.6942 38.4623 23.6942 38.4151 23.6964ZM34.635 29.7445C34.4364 29.7538 34.2416 29.8021 34.0617 29.8866C33.8817 29.9712 33.7202 30.0904 33.5864 30.2374C33.4525 30.3844 33.3489 30.5563 33.2815 30.7433C33.2141 30.9304 33.1842 31.1288 33.1935 31.3274C33.2028 31.526 33.2512 31.7208 33.3358 31.9007C33.4204 32.0806 33.5396 32.2421 33.6866 32.3759C33.8336 32.5098 34.0056 32.6133 34.1926 32.6807C34.3797 32.7481 34.5782 32.7779 34.7767 32.7686H58.9692C59.1696 32.7714 59.3685 32.7344 59.5545 32.6597C59.7404 32.5849 59.9096 32.474 60.0523 32.3333C60.195 32.1927 60.3083 32.025 60.3856 31.8402C60.463 31.6553 60.5028 31.4569 60.5028 31.2565C60.5028 31.0562 60.463 30.8578 60.3856 30.6729C60.3083 30.4881 60.195 30.3204 60.0523 30.1797C59.9096 30.0391 59.7404 29.9281 59.5545 29.8534C59.3685 29.7787 59.1696 29.7417 58.9692 29.7445H34.7767C34.7295 29.7423 34.6822 29.7423 34.635 29.7445ZM38.4151 35.7926C38.2165 35.8019 38.0217 35.8502 37.8417 35.9348C37.6618 36.0193 37.5003 36.1385 37.3665 36.2855C37.2326 36.4325 37.129 36.6044 37.0616 36.7915C36.9942 36.9785 36.9643 37.177 36.9736 37.3756C36.9829 37.5741 37.0312 37.769 37.1159 37.9489C37.2005 38.1288 37.3197 38.2902 37.4667 38.4241C37.6137 38.5579 37.7857 38.6615 37.9727 38.7288C38.1597 38.7962 38.3582 38.826 38.5568 38.8167H58.9692C59.1696 38.8195 59.3685 38.7825 59.5545 38.7078C59.7404 38.6331 59.9096 38.5222 60.0523 38.3815C60.195 38.2408 60.3083 38.0731 60.3856 37.8883C60.463 37.7034 60.5028 37.505 60.5028 37.3047C60.5028 37.1043 60.463 36.9059 60.3856 36.7211C60.3083 36.5362 60.195 36.3686 60.0523 36.2279C59.9096 36.0872 59.7404 35.9763 59.5545 35.9015C59.3685 35.8268 59.1696 35.7898 58.9692 35.7926H38.5568C38.5096 35.7904 38.4623 35.7904 38.4151 35.7926Z" fill="#5ECE84"/>
</svg>
