<svg width="91" height="15" viewBox="0 0 91 15" fill="none" xmlns="http://www.w3.org/2000/svg">
<path d="M7.5 15C11.636 15 15 11.636 15 7.5C15 3.364 11.636 0 7.5 0C3.364 0 0 3.364 0 7.5C0 11.636 3.364 15 7.5 15ZM7.5 5C8.879 5 10 6.121 10 7.5C10 8.879 8.879 10 7.5 10C6.121 10 5 8.879 5 7.5C5 6.121 6.121 5 7.5 5Z" fill="#5ECE84"/>
<path d="M30.729 9.26999C31.2 9.72999 31.839 9.99999 32.5 9.99999C33.161 9.99999 33.8 9.72899 34.27 9.26999C34.729 8.79999 35 8.15999 35 7.49999C35 6.83999 34.729 6.19999 34.27 5.72899C33.34 4.79899 31.661 4.79899 30.73 5.72899C30.27 6.19999 30 6.83999 30 7.49999C30 8.15999 30.27 8.79999 30.729 9.26999Z" fill="#5ECE84"/>
<path d="M20.729 9.26999C21.2 9.72999 21.839 9.99999 22.5 9.99999C23.161 9.99999 23.81 9.72899 24.27 9.26999C24.729 8.79999 25 8.15999 25 7.49999C25 6.83999 24.729 6.19999 24.27 5.72899C23.34 4.79899 21.661 4.79899 20.73 5.72899C20.27 6.19999 20 6.83999 20 7.49999C20 8.15999 20.27 8.79999 20.729 9.26999Z" fill="#5ECE84"/>
<path d="M65.729 9.26999C66.2 9.72999 66.839 9.99999 67.5 9.99999C68.161 9.99999 68.8 9.72899 69.27 9.26999C69.729 8.79999 70 8.15999 70 7.49999C70 6.83999 69.729 6.19999 69.27 5.72899C68.331 4.79899 66.661 4.79899 65.73 5.72899C65.27 6.19999 65 6.83999 65 7.49999C65 8.15999 65.27 8.79999 65.729 9.26999Z" fill="#5ECE84"/>
<path d="M55.729 9.26999C56.2 9.72999 56.839 9.99999 57.5 9.99999C58.161 9.99999 58.8 9.72899 59.27 9.26999C59.729 8.79999 60 8.15999 60 7.49999C60 6.83999 59.729 6.19999 59.27 5.72899C58.331 4.79899 56.661 4.79899 55.73 5.72899C55.27 6.19999 55 6.83999 55 7.49999C55 8.15999 55.27 8.79999 55.729 9.26999Z" fill="#5ECE84"/>
<path d="M81.2501 6.46494L78.0181 3.23193L74.4821 6.76794L81.2501 13.5349L90.5181 4.26794L86.9821 0.731934L81.2501 6.46494Z" fill="#5ECE84"/>
<path d="M41.4651 14.5699L45.0001 11.0349L48.5351 14.5699L52.0701 11.0349L48.5351 7.49993L52.0701 3.96493L48.5351 0.429932L45.0001 3.96493L41.4651 0.429932L37.9301 3.96493L41.4651 7.49993L37.9301 11.0349L41.4651 14.5699Z" fill="#5ECE84"/>
</svg>
